solid OpenSCAD_Model
  facet normal -1 0 0
    outer loop
      vertex 0 7.88091 17.5889
      vertex 0 0 22
      vertex 0 12 22
    endloop
  endfacet
  facet normal -1 0 0
    outer loop
      vertex 0 0 0
      vertex 0 0 22
      vertex 0 2.8 15
    endloop
  endfacet
  facet normal -1 0 0
    outer loop
      vertex 0 0 0
      vertex 0 2.8 15
      vertex 0 2.95662 14.0111
    endloop
  endfacet
  facet normal -1 0 0
    outer loop
      vertex 0 0 0
      vertex 0 2.95662 14.0111
      vertex 0 3.41115 13.1191
    endloop
  endfacet
  facet normal -1 0 0
    outer loop
      vertex 0 0 0
      vertex 0 3.41115 13.1191
      vertex 0 12 0
    endloop
  endfacet
  facet normal -1 0 0
    outer loop
      vertex 0 5.01115 11.9566
      vertex 0 12 0
      vertex 0 4.11909 12.4111
    endloop
  endfacet
  facet normal -1 0 0
    outer loop
      vertex 0 6 11.8
      vertex 0 12 0
      vertex 0 5.01115 11.9566
    endloop
  endfacet
  facet normal -1 0 0
    outer loop
      vertex 0 9.2 15
      vertex 0 12 22
      vertex 0 9.04338 14.0111
    endloop
  endfacet
  facet normal -1 0 0
    outer loop
      vertex 0 12 0
      vertex 0 6 11.8
      vertex 0 6.98885 11.9566
    endloop
  endfacet
  facet normal -1 0 0
    outer loop
      vertex 0 12 0
      vertex 0 6.98885 11.9566
      vertex 0 7.88091 12.4111
    endloop
  endfacet
  facet normal -1 0 0
    outer loop
      vertex 0 12 0
      vertex 0 7.88091 12.4111
      vertex 0 8.58885 13.1191
    endloop
  endfacet
  facet normal -1 0 0
    outer loop
      vertex 0 12 0
      vertex 0 8.58885 13.1191
      vertex 0 9.04338 14.0111
    endloop
  endfacet
  facet normal -1 0 0
    outer loop
      vertex 0 12 0
      vertex 0 9.04338 14.0111
      vertex 0 12 22
    endloop
  endfacet
  facet normal -1 0 0
    outer loop
      vertex 0 9.04338 15.9889
      vertex 0 12 22
      vertex 0 9.2 15
    endloop
  endfacet
  facet normal -1 0 0
    outer loop
      vertex 0 8.58885 16.8809
      vertex 0 12 22
      vertex 0 9.04338 15.9889
    endloop
  endfacet
  facet normal -1 0 0
    outer loop
      vertex 0 2.95662 15.9889
      vertex 0 0 22
      vertex 0 3.41115 16.8809
    endloop
  endfacet
  facet normal -1 0 0
    outer loop
      vertex 0 6 18.2
      vertex 0 0 22
      vertex 0 6.98885 18.0434
    endloop
  endfacet
  facet normal -1 0 0
    outer loop
      vertex 0 6.98885 18.0434
      vertex 0 0 22
      vertex 0 7.88091 17.5889
    endloop
  endfacet
  facet normal -1 0 0
    outer loop
      vertex 0 8.58885 16.8809
      vertex 0 7.88091 17.5889
      vertex 0 12 22
    endloop
  endfacet
  facet normal -1 0 0
    outer loop
      vertex 0 5.01115 18.0434
      vertex 0 0 22
      vertex 0 6 18.2
    endloop
  endfacet
  facet normal -1 0 0
    outer loop
      vertex 0 4.11909 17.5889
      vertex 0 0 22
      vertex 0 5.01115 18.0434
    endloop
  endfacet
  facet normal -1 0 0
    outer loop
      vertex 0 3.41115 16.8809
      vertex 0 0 22
      vertex 0 4.11909 17.5889
    endloop
  endfacet
  facet normal -1 0 0
    outer loop
      vertex 0 2.8 15
      vertex 0 0 22
      vertex 0 2.95662 15.9889
    endloop
  endfacet
  facet normal -1 0 0
    outer loop
      vertex 0 4.11909 12.4111
      vertex 0 12 0
      vertex 0 3.41115 13.1191
    endloop
  endfacet
  facet normal 0 -1 0
    outer loop
      vertex 18 0 2
      vertex 0 0 0
      vertex 20 0 0
    endloop
  endfacet
  facet normal 0 -1 0
    outer loop
      vertex 2 0 2
      vertex 2 0 22
      vertex 0 0 22
    endloop
  endfacet
  facet normal 0 -1 0
    outer loop
      vertex 20 0 22
      vertex 18 0 22
      vertex 20 0 0
    endloop
  endfacet
  facet normal 0 -1 0
    outer loop
      vertex 2 0 2
      vertex 0 0 0
      vertex 18 0 2
    endloop
  endfacet
  facet normal 0 -1 0
    outer loop
      vertex 0 0 22
      vertex 0 0 0
      vertex 2 0 2
    endloop
  endfacet
  facet normal 0 -1 0
    outer loop
      vertex 18 0 22
      vertex 18 0 2
      vertex 20 0 0
    endloop
  endfacet
  facet normal 0 0 -1
    outer loop
      vertex 0 0 0
      vertex 0 12 0
      vertex 20 0 0
    endloop
  endfacet
  facet normal 0 0 -1
    outer loop
      vertex 20 0 0
      vertex 0 12 0
      vertex 20 12 0
    endloop
  endfacet
  facet normal 0 1 0
    outer loop
      vertex 0 12 0
      vertex 0 12 22
      vertex 2 12 2
    endloop
  endfacet
  facet normal 0 1 0
    outer loop
      vertex 0 12 0
      vertex 2 12 2
      vertex 20 12 0
    endloop
  endfacet
  facet normal 0 1 0
    outer loop
      vertex 18 12 22
      vertex 20 12 0
      vertex 18 12 2
    endloop
  endfacet
  facet normal 0 1 0
    outer loop
      vertex 2 12 2
      vertex 18 12 2
      vertex 20 12 0
    endloop
  endfacet
  facet normal 0 1 0
    outer loop
      vertex 20 12 0
      vertex 18 12 22
      vertex 20 12 22
    endloop
  endfacet
  facet normal 0 1 0
    outer loop
      vertex 2 12 2
      vertex 0 12 22
      vertex 2 12 22
    endloop
  endfacet
  facet normal 0 0 1
    outer loop
      vertex 0 12 22
      vertex 0 0 22
      vertex 2 0 22
    endloop
  endfacet
  facet normal 0 0 1
    outer loop
      vertex 2 12 22
      vertex 0 12 22
      vertex 2 0 22
    endloop
  endfacet
  facet normal -3.47354e-17 0.987688 0.156434
    outer loop
      vertex 2 2.95662 14.0111
      vertex 0 2.95662 14.0111
      vertex 2 2.8 15
    endloop
  endfacet
  facet normal -3.47354e-17 0.987688 0.156434
    outer loop
      vertex 2 2.8 15
      vertex 0 2.95662 14.0111
      vertex 0 2.8 15
    endloop
  endfacet
  facet normal 3.47354e-17 0.987688 -0.156434
    outer loop
      vertex 2 2.95662 15.9889
      vertex 2 2.8 15
      vertex 0 2.95662 15.9889
    endloop
  endfacet
  facet normal 3.47354e-17 0.987688 -0.156434
    outer loop
      vertex 0 2.95662 15.9889
      vertex 2 2.8 15
      vertex 0 2.8 15
    endloop
  endfacet
  facet normal 1.00806e-16 0.891006 -0.453991
    outer loop
      vertex 2 3.41115 16.8809
      vertex 2 2.95662 15.9889
      vertex 0 3.41115 16.8809
    endloop
  endfacet
  facet normal 1.00806e-16 0.891006 -0.453991
    outer loop
      vertex 0 3.41115 16.8809
      vertex 2 2.95662 15.9889
      vertex 0 2.95662 15.9889
    endloop
  endfacet
  facet normal 1.57009e-16 0.707107 -0.707107
    outer loop
      vertex 2 4.11909 17.5889
      vertex 2 3.41115 16.8809
      vertex 0 4.11909 17.5889
    endloop
  endfacet
  facet normal 1.57009e-16 0.707107 -0.707107
    outer loop
      vertex 0 4.11909 17.5889
      vertex 2 3.41115 16.8809
      vertex 0 3.41115 16.8809
    endloop
  endfacet
  facet normal 1.97843e-16 0.453991 -0.891006
    outer loop
      vertex 2 5.01115 18.0434
      vertex 2 4.11909 17.5889
      vertex 0 5.01115 18.0434
    endloop
  endfacet
  facet normal 1.97843e-16 0.453991 -0.891006
    outer loop
      vertex 0 5.01115 18.0434
      vertex 2 4.11909 17.5889
      vertex 0 4.11909 17.5889
    endloop
  endfacet
  facet normal 2.19311e-16 0.156434 -0.987688
    outer loop
      vertex 2 6 18.2
      vertex 2 5.01115 18.0434
      vertex 0 6 18.2
    endloop
  endfacet
  facet normal 2.19311e-16 0.156434 -0.987688
    outer loop
      vertex 0 6 18.2
      vertex 2 5.01115 18.0434
      vertex 0 5.01115 18.0434
    endloop
  endfacet
  facet normal 2.19311e-16 -0.156434 -0.987688
    outer loop
      vertex 2 6.98885 18.0434
      vertex 2 6 18.2
      vertex 0 6.98885 18.0434
    endloop
  endfacet
  facet normal 2.19311e-16 -0.156434 -0.987688
    outer loop
      vertex 0 6.98885 18.0434
      vertex 2 6 18.2
      vertex 0 6 18.2
    endloop
  endfacet
  facet normal 1.97843e-16 -0.453991 -0.891006
    outer loop
      vertex 2 7.88091 17.5889
      vertex 2 6.98885 18.0434
      vertex 0 7.88091 17.5889
    endloop
  endfacet
  facet normal 1.97843e-16 -0.453991 -0.891006
    outer loop
      vertex 0 7.88091 17.5889
      vertex 2 6.98885 18.0434
      vertex 0 6.98885 18.0434
    endloop
  endfacet
  facet normal 1.57009e-16 -0.707107 -0.707107
    outer loop
      vertex 0 8.58885 16.8809
      vertex 2 8.58885 16.8809
      vertex 2 7.88091 17.5889
    endloop
  endfacet
  facet normal 1.57009e-16 -0.707107 -0.707107
    outer loop
      vertex 0 7.88091 17.5889
      vertex 0 8.58885 16.8809
      vertex 2 7.88091 17.5889
    endloop
  endfacet
  facet normal 1.00806e-16 -0.891006 -0.453991
    outer loop
      vertex 0 9.04338 15.9889
      vertex 2 9.04338 15.9889
      vertex 2 8.58885 16.8809
    endloop
  endfacet
  facet normal 1.00806e-16 -0.891006 -0.453991
    outer loop
      vertex 0 8.58885 16.8809
      vertex 0 9.04338 15.9889
      vertex 2 8.58885 16.8809
    endloop
  endfacet
  facet normal 3.47354e-17 -0.987688 -0.156434
    outer loop
      vertex 0 9.2 15
      vertex 2 9.2 15
      vertex 2 9.04338 15.9889
    endloop
  endfacet
  facet normal 3.47354e-17 -0.987688 -0.156434
    outer loop
      vertex 0 9.04338 15.9889
      vertex 0 9.2 15
      vertex 2 9.04338 15.9889
    endloop
  endfacet
  facet normal -3.47354e-17 -0.987688 0.156434
    outer loop
      vertex 2 9.04338 14.0111
      vertex 2 9.2 15
      vertex 0 9.2 15
    endloop
  endfacet
  facet normal -3.47354e-17 -0.987688 0.156434
    outer loop
      vertex 0 9.04338 14.0111
      vertex 2 9.04338 14.0111
      vertex 0 9.2 15
    endloop
  endfacet
  facet normal -1.00806e-16 -0.891006 0.453991
    outer loop
      vertex 2 8.58885 13.1191
      vertex 2 9.04338 14.0111
      vertex 0 9.04338 14.0111
    endloop
  endfacet
  facet normal -1.00806e-16 -0.891006 0.453991
    outer loop
      vertex 0 8.58885 13.1191
      vertex 2 8.58885 13.1191
      vertex 0 9.04338 14.0111
    endloop
  endfacet
  facet normal -1.57009e-16 -0.707107 0.707107
    outer loop
      vertex 2 7.88091 12.4111
      vertex 2 8.58885 13.1191
      vertex 0 8.58885 13.1191
    endloop
  endfacet
  facet normal -1.57009e-16 -0.707107 0.707107
    outer loop
      vertex 0 7.88091 12.4111
      vertex 2 7.88091 12.4111
      vertex 0 8.58885 13.1191
    endloop
  endfacet
  facet normal -1.97843e-16 -0.453991 0.891006
    outer loop
      vertex 2 6.98885 11.9566
      vertex 2 7.88091 12.4111
      vertex 0 7.88091 12.4111
    endloop
  endfacet
  facet normal -1.97843e-16 -0.453991 0.891006
    outer loop
      vertex 0 6.98885 11.9566
      vertex 2 6.98885 11.9566
      vertex 0 7.88091 12.4111
    endloop
  endfacet
  facet normal -2.19311e-16 -0.156434 0.987688
    outer loop
      vertex 2 6 11.8
      vertex 2 6.98885 11.9566
      vertex 0 6.98885 11.9566
    endloop
  endfacet
  facet normal -2.19311e-16 -0.156434 0.987688
    outer loop
      vertex 0 6 11.8
      vertex 2 6 11.8
      vertex 0 6.98885 11.9566
    endloop
  endfacet
  facet normal -2.19311e-16 0.156434 0.987688
    outer loop
      vertex 2 5.01115 11.9566
      vertex 2 6 11.8
      vertex 0 6 11.8
    endloop
  endfacet
  facet normal -2.19311e-16 0.156434 0.987688
    outer loop
      vertex 0 5.01115 11.9566
      vertex 2 5.01115 11.9566
      vertex 0 6 11.8
    endloop
  endfacet
  facet normal -1.97843e-16 0.453991 0.891006
    outer loop
      vertex 2 4.11909 12.4111
      vertex 2 5.01115 11.9566
      vertex 0 5.01115 11.9566
    endloop
  endfacet
  facet normal -1.97843e-16 0.453991 0.891006
    outer loop
      vertex 0 4.11909 12.4111
      vertex 2 4.11909 12.4111
      vertex 0 5.01115 11.9566
    endloop
  endfacet
  facet normal -1.57009e-16 0.707107 0.707107
    outer loop
      vertex 2 4.11909 12.4111
      vertex 0 4.11909 12.4111
      vertex 2 3.41115 13.1191
    endloop
  endfacet
  facet normal -1.57009e-16 0.707107 0.707107
    outer loop
      vertex 2 3.41115 13.1191
      vertex 0 4.11909 12.4111
      vertex 0 3.41115 13.1191
    endloop
  endfacet
  facet normal -1.00806e-16 0.891006 0.453991
    outer loop
      vertex 2 3.41115 13.1191
      vertex 0 3.41115 13.1191
      vertex 2 2.95662 14.0111
    endloop
  endfacet
  facet normal -1.00806e-16 0.891006 0.453991
    outer loop
      vertex 2 2.95662 14.0111
      vertex 0 3.41115 13.1191
      vertex 0 2.95662 14.0111
    endloop
  endfacet
  facet normal 1 0 0
    outer loop
      vertex 2 4.11909 17.5889
      vertex 2 12 22
      vertex 2 0 22
    endloop
  endfacet
  facet normal 1 0 0
    outer loop
      vertex 2 5.01115 18.0434
      vertex 2 6 18.2
      vertex 2 12 22
    endloop
  endfacet
  facet normal 1 0 0
    outer loop
      vertex 2 0 2
      vertex 2 2.8 15
      vertex 2 0 22
    endloop
  endfacet
  facet normal 1 0 0
    outer loop
      vertex 2 2.8 15
      vertex 2 2.95662 15.9889
      vertex 2 0 22
    endloop
  endfacet
  facet normal 1 0 0
    outer loop
      vertex 2 3.41115 16.8809
      vertex 2 4.11909 17.5889
      vertex 2 0 22
    endloop
  endfacet
  facet normal 1 0 0
    outer loop
      vertex 2 5.01115 18.0434
      vertex 2 12 22
      vertex 2 4.11909 17.5889
    endloop
  endfacet
  facet normal 1 0 0
    outer loop
      vertex 2 9.2 15
      vertex 2 9.04338 14.0111
      vertex 2 12 2
    endloop
  endfacet
  facet normal 1 0 0
    outer loop
      vertex 2 6.98885 18.0434
      vertex 2 12 22
      vertex 2 6 18.2
    endloop
  endfacet
  facet normal 1 0 0
    outer loop
      vertex 2 6.98885 11.9566
      vertex 2 6 11.8
      vertex 2 12 2
    endloop
  endfacet
  facet normal 1 0 0
    outer loop
      vertex 2 7.88091 17.5889
      vertex 2 12 22
      vertex 2 6.98885 18.0434
    endloop
  endfacet
  facet normal 1 0 0
    outer loop
      vertex 2 8.58885 16.8809
      vertex 2 12 22
      vertex 2 7.88091 17.5889
    endloop
  endfacet
  facet normal 1 0 0
    outer loop
      vertex 2 9.04338 15.9889
      vertex 2 12 22
      vertex 2 8.58885 16.8809
    endloop
  endfacet
  facet normal 1 0 0
    outer loop
      vertex 2 12 2
      vertex 2 12 22
      vertex 2 9.04338 15.9889
    endloop
  endfacet
  facet normal 1 0 0
    outer loop
      vertex 2 9.04338 14.0111
      vertex 2 8.58885 13.1191
      vertex 2 12 2
    endloop
  endfacet
  facet normal 1 0 0
    outer loop
      vertex 2 12 2
      vertex 2 9.04338 15.9889
      vertex 2 9.2 15
    endloop
  endfacet
  facet normal 1 0 0
    outer loop
      vertex 2 6 11.8
      vertex 2 5.01115 11.9566
      vertex 2 12 2
    endloop
  endfacet
  facet normal 1 0 0
    outer loop
      vertex 2 12 2
      vertex 2 7.88091 12.4111
      vertex 2 6.98885 11.9566
    endloop
  endfacet
  facet normal 1 0 0
    outer loop
      vertex 2 8.58885 13.1191
      vertex 2 7.88091 12.4111
      vertex 2 12 2
    endloop
  endfacet
  facet normal 1 0 0
    outer loop
      vertex 2 5.01115 11.9566
      vertex 2 4.11909 12.4111
      vertex 2 12 2
    endloop
  endfacet
  facet normal 1 0 0
    outer loop
      vertex 2 0 2
      vertex 2 12 2
      vertex 2 4.11909 12.4111
    endloop
  endfacet
  facet normal 1 0 0
    outer loop
      vertex 2 0 2
      vertex 2 4.11909 12.4111
      vertex 2 3.41115 13.1191
    endloop
  endfacet
  facet normal 1 0 0
    outer loop
      vertex 2 0 2
      vertex 2 2.95662 14.0111
      vertex 2 2.8 15
    endloop
  endfacet
  facet normal 1 0 0
    outer loop
      vertex 2 0 2
      vertex 2 3.41115 13.1191
      vertex 2 2.95662 14.0111
    endloop
  endfacet
  facet normal 1 0 0
    outer loop
      vertex 2 2.95662 15.9889
      vertex 2 3.41115 16.8809
      vertex 2 0 22
    endloop
  endfacet
  facet normal 0 0 1
    outer loop
      vertex 18 0 2
      vertex 18 12 2
      vertex 2 12 2
    endloop
  endfacet
  facet normal 0 0 1
    outer loop
      vertex 2 0 2
      vertex 18 0 2
      vertex 2 12 2
    endloop
  endfacet
  facet normal -1 0 0
    outer loop
      vertex 18 3.77639 14.7649
      vertex 18 12 2
      vertex 18 0 2
    endloop
  endfacet
  facet normal -1 0 0
    outer loop
      vertex 18 4.42361 14.7649
      vertex 18 12 2
      vertex 18 4.33511 14.6764
    endloop
  endfacet
  facet normal -1 0 0
    outer loop
      vertex 18 0 22
      vertex 18 3.71958 14.8764
      vertex 18 0 2
    endloop
  endfacet
  facet normal -1 0 0
    outer loop
      vertex 18 3.71958 14.8764
      vertex 18 3.77639 14.7649
      vertex 18 0 2
    endloop
  endfacet
  facet normal -1 0 0
    outer loop
      vertex 18 3.97639 14.6196
      vertex 18 12 2
      vertex 18 3.86489 14.6764
    endloop
  endfacet
  facet normal -1 0 0
    outer loop
      vertex 18 3.86489 14.6764
      vertex 18 12 2
      vertex 18 3.77639 14.7649
    endloop
  endfacet
  facet normal -1 0 0
    outer loop
      vertex 18 4.1 14.6
      vertex 18 12 2
      vertex 18 3.97639 14.6196
    endloop
  endfacet
  facet normal -1 0 0
    outer loop
      vertex 18 4.22361 14.6196
      vertex 18 12 2
      vertex 18 4.1 14.6
    endloop
  endfacet
  facet normal -1 0 0
    outer loop
      vertex 18 4.33511 14.6764
      vertex 18 12 2
      vertex 18 4.22361 14.6196
    endloop
  endfacet
  facet normal -1 0 0
    outer loop
      vertex 18 7.51958 14.8764
      vertex 18 12 2
      vertex 18 4.42361 14.7649
    endloop
  endfacet
  facet normal -1 0 0
    outer loop
      vertex 18 12 22
      vertex 18 4.42361 14.7649
      vertex 18 4.48042 14.8764
    endloop
  endfacet
  facet normal -1 0 0
    outer loop
      vertex 18 12 22
      vertex 18 4.48042 14.8764
      vertex 18 4.5 15
    endloop
  endfacet
  facet normal -1 0 0
    outer loop
      vertex 18 12 22
      vertex 18 4.5 15
      vertex 18 4.48042 15.1236
    endloop
  endfacet
  facet normal -1 0 0
    outer loop
      vertex 18 12 22
      vertex 18 4.48042 15.1236
      vertex 18 4.42361 15.2351
    endloop
  endfacet
  facet normal -1 0 0
    outer loop
      vertex 18 12 22
      vertex 18 4.42361 15.2351
      vertex 18 0 22
    endloop
  endfacet
  facet normal -1 0 0
    outer loop
      vertex 18 4.22361 15.3804
      vertex 18 0 22
      vertex 18 4.33511 15.3236
    endloop
  endfacet
  facet normal -1 0 0
    outer loop
      vertex 18 4.1 15.4
      vertex 18 0 22
      vertex 18 4.22361 15.3804
    endloop
  endfacet
  facet normal -1 0 0
    outer loop
      vertex 18 3.97639 15.3804
      vertex 18 0 22
      vertex 18 4.1 15.4
    endloop
  endfacet
  facet normal -1 0 0
    outer loop
      vertex 18 4.33511 15.3236
      vertex 18 0 22
      vertex 18 4.42361 15.2351
    endloop
  endfacet
  facet normal -1 0 0
    outer loop
      vertex 18 3.86489 15.3236
      vertex 18 0 22
      vertex 18 3.97639 15.3804
    endloop
  endfacet
  facet normal -1 0 0
    outer loop
      vertex 18 3.77639 15.2351
      vertex 18 0 22
      vertex 18 3.86489 15.3236
    endloop
  endfacet
  facet normal -1 0 0
    outer loop
      vertex 18 3.71958 15.1236
      vertex 18 0 22
      vertex 18 3.77639 15.2351
    endloop
  endfacet
  facet normal -1 0 0
    outer loop
      vertex 18 3.7 15
      vertex 18 0 22
      vertex 18 3.71958 15.1236
    endloop
  endfacet
  facet normal -1 0 0
    outer loop
      vertex 18 8.3 15
      vertex 18 12 22
      vertex 18 8.28042 14.8764
    endloop
  endfacet
  facet normal -1 0 0
    outer loop
      vertex 18 7.57639 14.7649
      vertex 18 12 2
      vertex 18 7.51958 14.8764
    endloop
  endfacet
  facet normal -1 0 0
    outer loop
      vertex 18 7.5 15
      vertex 18 7.51958 14.8764
      vertex 18 4.42361 14.7649
    endloop
  endfacet
  facet normal -1 0 0
    outer loop
      vertex 18 7.66489 14.6764
      vertex 18 12 2
      vertex 18 7.57639 14.7649
    endloop
  endfacet
  facet normal -1 0 0
    outer loop
      vertex 18 7.77639 14.6196
      vertex 18 12 2
      vertex 18 7.66489 14.6764
    endloop
  endfacet
  facet normal -1 0 0
    outer loop
      vertex 18 7.9 14.6
      vertex 18 12 2
      vertex 18 7.77639 14.6196
    endloop
  endfacet
  facet normal -1 0 0
    outer loop
      vertex 18 8.02361 14.6196
      vertex 18 12 2
      vertex 18 7.9 14.6
    endloop
  endfacet
  facet normal -1 0 0
    outer loop
      vertex 18 8.13511 14.6764
      vertex 18 12 2
      vertex 18 8.02361 14.6196
    endloop
  endfacet
  facet normal -1 0 0
    outer loop
      vertex 18 8.22361 14.7649
      vertex 18 12 2
      vertex 18 8.13511 14.6764
    endloop
  endfacet
  facet normal -1 0 0
    outer loop
      vertex 18 12 22
      vertex 18 12 2
      vertex 18 8.22361 14.7649
    endloop
  endfacet
  facet normal -1 0 0
    outer loop
      vertex 18 12 22
      vertex 18 8.22361 14.7649
      vertex 18 8.28042 14.8764
    endloop
  endfacet
  facet normal -1 0 0
    outer loop
      vertex 18 8.28042 15.1236
      vertex 18 12 22
      vertex 18 8.3 15
    endloop
  endfacet
  facet normal -1 0 0
    outer loop
      vertex 18 8.22361 15.2351
      vertex 18 12 22
      vertex 18 8.28042 15.1236
    endloop
  endfacet
  facet normal -1 0 0
    outer loop
      vertex 18 8.13511 15.3236
      vertex 18 12 22
      vertex 18 8.22361 15.2351
    endloop
  endfacet
  facet normal -1 0 0
    outer loop
      vertex 18 8.02361 15.3804
      vertex 18 12 22
      vertex 18 8.13511 15.3236
    endloop
  endfacet
  facet normal -1 0 0
    outer loop
      vertex 18 7.9 15.4
      vertex 18 12 22
      vertex 18 8.02361 15.3804
    endloop
  endfacet
  facet normal -1 0 0
    outer loop
      vertex 18 7.77639 15.3804
      vertex 18 12 22
      vertex 18 7.9 15.4
    endloop
  endfacet
  facet normal -1 0 0
    outer loop
      vertex 18 12 22
      vertex 18 7.77639 15.3804
      vertex 18 4.42361 14.7649
    endloop
  endfacet
  facet normal -1 0 0
    outer loop
      vertex 18 7.77639 15.3804
      vertex 18 7.66489 15.3236
      vertex 18 4.42361 14.7649
    endloop
  endfacet
  facet normal -1 0 0
    outer loop
      vertex 18 7.66489 15.3236
      vertex 18 7.57639 15.2351
      vertex 18 4.42361 14.7649
    endloop
  endfacet
  facet normal -1 0 0
    outer loop
      vertex 18 7.57639 15.2351
      vertex 18 7.51958 15.1236
      vertex 18 4.42361 14.7649
    endloop
  endfacet
  facet normal -1 0 0
    outer loop
      vertex 18 7.51958 15.1236
      vertex 18 7.5 15
      vertex 18 4.42361 14.7649
    endloop
  endfacet
  facet normal -1 0 0
    outer loop
      vertex 18 3.71958 14.8764
      vertex 18 0 22
      vertex 18 3.7 15
    endloop
  endfacet
  facet normal 0 0 1
    outer loop
      vertex 18 12 22
      vertex 18 0 22
      vertex 20 0 22
    endloop
  endfacet
  facet normal 0 0 1
    outer loop
      vertex 20 12 22
      vertex 18 12 22
      vertex 20 0 22
    endloop
  endfacet
  facet normal 1 0 0
    outer loop
      vertex 20 3.77639 14.7649
      vertex 20 0 0
      vertex 20 12 0
    endloop
  endfacet
  facet normal 1 0 0
    outer loop
      vertex 20 3.86489 15.3236
      vertex 20 3.97639 15.3804
      vertex 20 12 22
    endloop
  endfacet
  facet normal 1 0 0
    outer loop
      vertex 20 7.57639 15.2351
      vertex 20 7.66489 15.3236
      vertex 20 12 22
    endloop
  endfacet
  facet normal 1 0 0
    outer loop
      vertex 20 0 22
      vertex 20 0 0
      vertex 20 3.71958 14.8764
    endloop
  endfacet
  facet normal 1 0 0
    outer loop
      vertex 20 3.86489 14.6764
      vertex 20 3.77639 14.7649
      vertex 20 12 0
    endloop
  endfacet
  facet normal 1 0 0
    outer loop
      vertex 20 0 22
      vertex 20 3.71958 14.8764
      vertex 20 3.7 15
    endloop
  endfacet
  facet normal 1 0 0
    outer loop
      vertex 20 4.48042 14.8764
      vertex 20 4.42361 14.7649
      vertex 20 12 0
    endloop
  endfacet
  facet normal 1 0 0
    outer loop
      vertex 20 0 22
      vertex 20 3.7 15
      vertex 20 3.71958 15.1236
    endloop
  endfacet
  facet normal 1 0 0
    outer loop
      vertex 20 4.1 14.6
      vertex 20 3.97639 14.6196
      vertex 20 12 0
    endloop
  endfacet
  facet normal 1 0 0
    outer loop
      vertex 20 3.86489 15.3236
      vertex 20 0 22
      vertex 20 3.77639 15.2351
    endloop
  endfacet
  facet normal 1 0 0
    outer loop
      vertex 20 4.48042 15.1236
      vertex 20 4.5 15
      vertex 20 12 0
    endloop
  endfacet
  facet normal 1 0 0
    outer loop
      vertex 20 12 22
      vertex 20 0 22
      vertex 20 3.86489 15.3236
    endloop
  endfacet
  facet normal 1 0 0
    outer loop
      vertex 20 4.22361 14.6196
      vertex 20 4.1 14.6
      vertex 20 12 0
    endloop
  endfacet
  facet normal 1 0 0
    outer loop
      vertex 20 4.42361 14.7649
      vertex 20 4.33511 14.6764
      vertex 20 12 0
    endloop
  endfacet
  facet normal 1 0 0
    outer loop
      vertex 20 12 22
      vertex 20 3.97639 15.3804
      vertex 20 4.1 15.4
    endloop
  endfacet
  facet normal 1 0 0
    outer loop
      vertex 20 12 22
      vertex 20 4.1 15.4
      vertex 20 4.22361 15.3804
    endloop
  endfacet
  facet normal 1 0 0
    outer loop
      vertex 20 12 22
      vertex 20 4.22361 15.3804
      vertex 20 4.33511 15.3236
    endloop
  endfacet
  facet normal 1 0 0
    outer loop
      vertex 20 4.5 15
      vertex 20 4.48042 14.8764
      vertex 20 12 0
    endloop
  endfacet
  facet normal 1 0 0
    outer loop
      vertex 20 12 22
      vertex 20 4.33511 15.3236
      vertex 20 4.42361 15.2351
    endloop
  endfacet
  facet normal 1 0 0
    outer loop
      vertex 20 7.51958 14.8764
      vertex 20 4.48042 15.1236
      vertex 20 12 0
    endloop
  endfacet
  facet normal 1 0 0
    outer loop
      vertex 20 12 22
      vertex 20 4.42361 15.2351
      vertex 20 4.48042 15.1236
    endloop
  endfacet
  facet normal 1 0 0
    outer loop
      vertex 20 4.33511 14.6764
      vertex 20 4.22361 14.6196
      vertex 20 12 0
    endloop
  endfacet
  facet normal 1 0 0
    outer loop
      vertex 20 3.71958 14.8764
      vertex 20 0 0
      vertex 20 3.77639 14.7649
    endloop
  endfacet
  facet normal 1 0 0
    outer loop
      vertex 20 7.57639 14.7649
      vertex 20 7.51958 14.8764
      vertex 20 12 0
    endloop
  endfacet
  facet normal 1 0 0
    outer loop
      vertex 20 7.5 15
      vertex 20 4.48042 15.1236
      vertex 20 7.51958 14.8764
    endloop
  endfacet
  facet normal 1 0 0
    outer loop
      vertex 20 7.51958 15.1236
      vertex 20 4.48042 15.1236
      vertex 20 7.5 15
    endloop
  endfacet
  facet normal 1 0 0
    outer loop
      vertex 20 7.57639 15.2351
      vertex 20 4.48042 15.1236
      vertex 20 7.51958 15.1236
    endloop
  endfacet
  facet normal 1 0 0
    outer loop
      vertex 20 7.66489 15.3236
      vertex 20 7.77639 15.3804
      vertex 20 12 22
    endloop
  endfacet
  facet normal 1 0 0
    outer loop
      vertex 20 12 22
      vertex 20 4.48042 15.1236
      vertex 20 7.57639 15.2351
    endloop
  endfacet
  facet normal 1 0 0
    outer loop
      vertex 20 7.77639 15.3804
      vertex 20 7.9 15.4
      vertex 20 12 22
    endloop
  endfacet
  facet normal 1 0 0
    outer loop
      vertex 20 8.3 15
      vertex 20 8.28042 14.8764
      vertex 20 12 0
    endloop
  endfacet
  facet normal 1 0 0
    outer loop
      vertex 20 8.13511 14.6764
      vertex 20 8.02361 14.6196
      vertex 20 12 0
    endloop
  endfacet
  facet normal 1 0 0
    outer loop
      vertex 20 12 22
      vertex 20 7.9 15.4
      vertex 20 8.02361 15.3804
    endloop
  endfacet
  facet normal 1 0 0
    outer loop
      vertex 20 8.22361 14.7649
      vertex 20 8.13511 14.6764
      vertex 20 12 0
    endloop
  endfacet
  facet normal 1 0 0
    outer loop
      vertex 20 12 22
      vertex 20 8.02361 15.3804
      vertex 20 8.13511 15.3236
    endloop
  endfacet
  facet normal 1 0 0
    outer loop
      vertex 20 8.28042 14.8764
      vertex 20 8.22361 14.7649
      vertex 20 12 0
    endloop
  endfacet
  facet normal 1 0 0
    outer loop
      vertex 20 12 22
      vertex 20 8.13511 15.3236
      vertex 20 8.22361 15.2351
    endloop
  endfacet
  facet normal 1 0 0
    outer loop
      vertex 20 12 22
      vertex 20 8.28042 15.1236
      vertex 20 12 0
    endloop
  endfacet
  facet normal 1 0 0
    outer loop
      vertex 20 12 22
      vertex 20 8.22361 15.2351
      vertex 20 8.28042 15.1236
    endloop
  endfacet
  facet normal 1 0 0
    outer loop
      vertex 20 8.28042 15.1236
      vertex 20 8.3 15
      vertex 20 12 0
    endloop
  endfacet
  facet normal 1 0 0
    outer loop
      vertex 20 8.02361 14.6196
      vertex 20 7.9 14.6
      vertex 20 12 0
    endloop
  endfacet
  facet normal 1 0 0
    outer loop
      vertex 20 7.9 14.6
      vertex 20 7.77639 14.6196
      vertex 20 12 0
    endloop
  endfacet
  facet normal 1 0 0
    outer loop
      vertex 20 7.77639 14.6196
      vertex 20 7.66489 14.6764
      vertex 20 12 0
    endloop
  endfacet
  facet normal 1 0 0
    outer loop
      vertex 20 7.66489 14.6764
      vertex 20 7.57639 14.7649
      vertex 20 12 0
    endloop
  endfacet
  facet normal 1 0 0
    outer loop
      vertex 20 3.97639 14.6196
      vertex 20 3.86489 14.6764
      vertex 20 12 0
    endloop
  endfacet
  facet normal 1 0 0
    outer loop
      vertex 20 3.71958 15.1236
      vertex 20 3.77639 15.2351
      vertex 20 0 22
    endloop
  endfacet
  facet normal -1.00807e-16 0.891005 0.453993
    outer loop
      vertex 20 3.77639 14.7649
      vertex 18 3.77639 14.7649
      vertex 20 3.71958 14.8764
    endloop
  endfacet
  facet normal -1.00807e-16 0.891005 0.453993
    outer loop
      vertex 20 3.71958 14.8764
      vertex 18 3.77639 14.7649
      vertex 18 3.71958 14.8764
    endloop
  endfacet
  facet normal -3.47347e-17 0.987689 0.156431
    outer loop
      vertex 20 3.71958 14.8764
      vertex 18 3.71958 14.8764
      vertex 20 3.7 15
    endloop
  endfacet
  facet normal -3.47347e-17 0.987689 0.156431
    outer loop
      vertex 20 3.7 15
      vertex 18 3.71958 14.8764
      vertex 18 3.7 15
    endloop
  endfacet
  facet normal 3.47347e-17 0.987689 -0.156431
    outer loop
      vertex 20 3.71958 15.1236
      vertex 20 3.7 15
      vertex 18 3.71958 15.1236
    endloop
  endfacet
  facet normal 3.47347e-17 0.987689 -0.156431
    outer loop
      vertex 18 3.71958 15.1236
      vertex 20 3.7 15
      vertex 18 3.7 15
    endloop
  endfacet
  facet normal 1.00807e-16 0.891005 -0.453993
    outer loop
      vertex 20 3.77639 15.2351
      vertex 20 3.71958 15.1236
      vertex 18 3.77639 15.2351
    endloop
  endfacet
  facet normal 1.00807e-16 0.891005 -0.453993
    outer loop
      vertex 18 3.77639 15.2351
      vertex 20 3.71958 15.1236
      vertex 18 3.71958 15.1236
    endloop
  endfacet
  facet normal 1.57009e-16 0.707107 -0.707107
    outer loop
      vertex 20 3.86489 15.3236
      vertex 20 3.77639 15.2351
      vertex 18 3.86489 15.3236
    endloop
  endfacet
  facet normal 1.57009e-16 0.707107 -0.707107
    outer loop
      vertex 18 3.86489 15.3236
      vertex 20 3.77639 15.2351
      vertex 18 3.77639 15.2351
    endloop
  endfacet
  facet normal 1.97843e-16 0.453993 -0.891005
    outer loop
      vertex 20 3.97639 15.3804
      vertex 20 3.86489 15.3236
      vertex 18 3.97639 15.3804
    endloop
  endfacet
  facet normal 1.97843e-16 0.453993 -0.891005
    outer loop
      vertex 18 3.97639 15.3804
      vertex 20 3.86489 15.3236
      vertex 18 3.86489 15.3236
    endloop
  endfacet
  facet normal 2.19311e-16 0.156431 -0.987689
    outer loop
      vertex 20 4.1 15.4
      vertex 20 3.97639 15.3804
      vertex 18 4.1 15.4
    endloop
  endfacet
  facet normal 2.19311e-16 0.156431 -0.987689
    outer loop
      vertex 18 4.1 15.4
      vertex 20 3.97639 15.3804
      vertex 18 3.97639 15.3804
    endloop
  endfacet
  facet normal 2.19311e-16 -0.156431 -0.987689
    outer loop
      vertex 20 4.22361 15.3804
      vertex 20 4.1 15.4
      vertex 18 4.22361 15.3804
    endloop
  endfacet
  facet normal 2.19311e-16 -0.156431 -0.987689
    outer loop
      vertex 18 4.22361 15.3804
      vertex 20 4.1 15.4
      vertex 18 4.1 15.4
    endloop
  endfacet
  facet normal 1.97843e-16 -0.453993 -0.891005
    outer loop
      vertex 20 4.33511 15.3236
      vertex 20 4.22361 15.3804
      vertex 18 4.33511 15.3236
    endloop
  endfacet
  facet normal 1.97843e-16 -0.453993 -0.891005
    outer loop
      vertex 18 4.33511 15.3236
      vertex 20 4.22361 15.3804
      vertex 18 4.22361 15.3804
    endloop
  endfacet
  facet normal 1.57009e-16 -0.707107 -0.707107
    outer loop
      vertex 18 4.42361 15.2351
      vertex 20 4.42361 15.2351
      vertex 20 4.33511 15.3236
    endloop
  endfacet
  facet normal 1.57009e-16 -0.707107 -0.707107
    outer loop
      vertex 18 4.33511 15.3236
      vertex 18 4.42361 15.2351
      vertex 20 4.33511 15.3236
    endloop
  endfacet
  facet normal 1.00807e-16 -0.891005 -0.453993
    outer loop
      vertex 18 4.48042 15.1236
      vertex 20 4.48042 15.1236
      vertex 20 4.42361 15.2351
    endloop
  endfacet
  facet normal 1.00807e-16 -0.891005 -0.453993
    outer loop
      vertex 18 4.42361 15.2351
      vertex 18 4.48042 15.1236
      vertex 20 4.42361 15.2351
    endloop
  endfacet
  facet normal 3.47347e-17 -0.987689 -0.156431
    outer loop
      vertex 18 4.5 15
      vertex 20 4.5 15
      vertex 20 4.48042 15.1236
    endloop
  endfacet
  facet normal 3.47347e-17 -0.987689 -0.156431
    outer loop
      vertex 18 4.48042 15.1236
      vertex 18 4.5 15
      vertex 20 4.48042 15.1236
    endloop
  endfacet
  facet normal -3.47347e-17 -0.987689 0.156431
    outer loop
      vertex 20 4.48042 14.8764
      vertex 20 4.5 15
      vertex 18 4.5 15
    endloop
  endfacet
  facet normal -3.47347e-17 -0.987689 0.156431
    outer loop
      vertex 18 4.48042 14.8764
      vertex 20 4.48042 14.8764
      vertex 18 4.5 15
    endloop
  endfacet
  facet normal -1.00807e-16 -0.891005 0.453993
    outer loop
      vertex 20 4.42361 14.7649
      vertex 20 4.48042 14.8764
      vertex 18 4.48042 14.8764
    endloop
  endfacet
  facet normal -1.00807e-16 -0.891005 0.453993
    outer loop
      vertex 18 4.42361 14.7649
      vertex 20 4.42361 14.7649
      vertex 18 4.48042 14.8764
    endloop
  endfacet
  facet normal -1.57009e-16 -0.707107 0.707107
    outer loop
      vertex 20 4.33511 14.6764
      vertex 20 4.42361 14.7649
      vertex 18 4.42361 14.7649
    endloop
  endfacet
  facet normal -1.57009e-16 -0.707107 0.707107
    outer loop
      vertex 18 4.33511 14.6764
      vertex 20 4.33511 14.6764
      vertex 18 4.42361 14.7649
    endloop
  endfacet
  facet normal -1.97843e-16 -0.453993 0.891005
    outer loop
      vertex 20 4.22361 14.6196
      vertex 20 4.33511 14.6764
      vertex 18 4.33511 14.6764
    endloop
  endfacet
  facet normal -1.97843e-16 -0.453993 0.891005
    outer loop
      vertex 18 4.22361 14.6196
      vertex 20 4.22361 14.6196
      vertex 18 4.33511 14.6764
    endloop
  endfacet
  facet normal -2.19311e-16 -0.156431 0.987689
    outer loop
      vertex 20 4.1 14.6
      vertex 20 4.22361 14.6196
      vertex 18 4.22361 14.6196
    endloop
  endfacet
  facet normal -2.19311e-16 -0.156431 0.987689
    outer loop
      vertex 18 4.1 14.6
      vertex 20 4.1 14.6
      vertex 18 4.22361 14.6196
    endloop
  endfacet
  facet normal -2.19311e-16 0.156431 0.987689
    outer loop
      vertex 20 3.97639 14.6196
      vertex 20 4.1 14.6
      vertex 18 4.1 14.6
    endloop
  endfacet
  facet normal -2.19311e-16 0.156431 0.987689
    outer loop
      vertex 18 3.97639 14.6196
      vertex 20 3.97639 14.6196
      vertex 18 4.1 14.6
    endloop
  endfacet
  facet normal -1.97843e-16 0.453993 0.891005
    outer loop
      vertex 20 3.86489 14.6764
      vertex 20 3.97639 14.6196
      vertex 18 3.97639 14.6196
    endloop
  endfacet
  facet normal -1.97843e-16 0.453993 0.891005
    outer loop
      vertex 18 3.86489 14.6764
      vertex 20 3.86489 14.6764
      vertex 18 3.97639 14.6196
    endloop
  endfacet
  facet normal -1.57009e-16 0.707107 0.707107
    outer loop
      vertex 20 3.86489 14.6764
      vertex 18 3.86489 14.6764
      vertex 20 3.77639 14.7649
    endloop
  endfacet
  facet normal -1.57009e-16 0.707107 0.707107
    outer loop
      vertex 20 3.77639 14.7649
      vertex 18 3.86489 14.6764
      vertex 18 3.77639 14.7649
    endloop
  endfacet
  facet normal -1.00807e-16 0.891005 0.453993
    outer loop
      vertex 20 7.57639 14.7649
      vertex 18 7.57639 14.7649
      vertex 20 7.51958 14.8764
    endloop
  endfacet
  facet normal -1.00807e-16 0.891005 0.453993
    outer loop
      vertex 20 7.51958 14.8764
      vertex 18 7.57639 14.7649
      vertex 18 7.51958 14.8764
    endloop
  endfacet
  facet normal -3.47347e-17 0.987689 0.156431
    outer loop
      vertex 20 7.51958 14.8764
      vertex 18 7.51958 14.8764
      vertex 20 7.5 15
    endloop
  endfacet
  facet normal -3.47347e-17 0.987689 0.156431
    outer loop
      vertex 20 7.5 15
      vertex 18 7.51958 14.8764
      vertex 18 7.5 15
    endloop
  endfacet
  facet normal 3.47347e-17 0.987689 -0.156431
    outer loop
      vertex 20 7.51958 15.1236
      vertex 20 7.5 15
      vertex 18 7.51958 15.1236
    endloop
  endfacet
  facet normal 3.47347e-17 0.987689 -0.156431
    outer loop
      vertex 18 7.51958 15.1236
      vertex 20 7.5 15
      vertex 18 7.5 15
    endloop
  endfacet
  facet normal 1.00807e-16 0.891005 -0.453993
    outer loop
      vertex 20 7.57639 15.2351
      vertex 20 7.51958 15.1236
      vertex 18 7.57639 15.2351
    endloop
  endfacet
  facet normal 1.00807e-16 0.891005 -0.453993
    outer loop
      vertex 18 7.57639 15.2351
      vertex 20 7.51958 15.1236
      vertex 18 7.51958 15.1236
    endloop
  endfacet
  facet normal 1.57009e-16 0.707107 -0.707107
    outer loop
      vertex 20 7.66489 15.3236
      vertex 20 7.57639 15.2351
      vertex 18 7.66489 15.3236
    endloop
  endfacet
  facet normal 1.57009e-16 0.707107 -0.707107
    outer loop
      vertex 18 7.66489 15.3236
      vertex 20 7.57639 15.2351
      vertex 18 7.57639 15.2351
    endloop
  endfacet
  facet normal 1.97843e-16 0.453993 -0.891005
    outer loop
      vertex 20 7.77639 15.3804
      vertex 20 7.66489 15.3236
      vertex 18 7.77639 15.3804
    endloop
  endfacet
  facet normal 1.97843e-16 0.453993 -0.891005
    outer loop
      vertex 18 7.77639 15.3804
      vertex 20 7.66489 15.3236
      vertex 18 7.66489 15.3236
    endloop
  endfacet
  facet normal 2.19311e-16 0.156431 -0.987689
    outer loop
      vertex 20 7.9 15.4
      vertex 20 7.77639 15.3804
      vertex 18 7.9 15.4
    endloop
  endfacet
  facet normal 2.19311e-16 0.156431 -0.987689
    outer loop
      vertex 18 7.9 15.4
      vertex 20 7.77639 15.3804
      vertex 18 7.77639 15.3804
    endloop
  endfacet
  facet normal 2.19311e-16 -0.156431 -0.987689
    outer loop
      vertex 20 8.02361 15.3804
      vertex 20 7.9 15.4
      vertex 18 8.02361 15.3804
    endloop
  endfacet
  facet normal 2.19311e-16 -0.156431 -0.987689
    outer loop
      vertex 18 8.02361 15.3804
      vertex 20 7.9 15.4
      vertex 18 7.9 15.4
    endloop
  endfacet
  facet normal 1.97843e-16 -0.453993 -0.891005
    outer loop
      vertex 20 8.13511 15.3236
      vertex 20 8.02361 15.3804
      vertex 18 8.13511 15.3236
    endloop
  endfacet
  facet normal 1.97843e-16 -0.453993 -0.891005
    outer loop
      vertex 18 8.13511 15.3236
      vertex 20 8.02361 15.3804
      vertex 18 8.02361 15.3804
    endloop
  endfacet
  facet normal 1.57009e-16 -0.707107 -0.707107
    outer loop
      vertex 18 8.22361 15.2351
      vertex 20 8.22361 15.2351
      vertex 20 8.13511 15.3236
    endloop
  endfacet
  facet normal 1.57009e-16 -0.707107 -0.707107
    outer loop
      vertex 18 8.13511 15.3236
      vertex 18 8.22361 15.2351
      vertex 20 8.13511 15.3236
    endloop
  endfacet
  facet normal 1.00807e-16 -0.891005 -0.453993
    outer loop
      vertex 18 8.28042 15.1236
      vertex 20 8.28042 15.1236
      vertex 20 8.22361 15.2351
    endloop
  endfacet
  facet normal 1.00807e-16 -0.891005 -0.453993
    outer loop
      vertex 18 8.22361 15.2351
      vertex 18 8.28042 15.1236
      vertex 20 8.22361 15.2351
    endloop
  endfacet
  facet normal 3.47347e-17 -0.987689 -0.156431
    outer loop
      vertex 18 8.3 15
      vertex 20 8.3 15
      vertex 20 8.28042 15.1236
    endloop
  endfacet
  facet normal 3.47347e-17 -0.987689 -0.156431
    outer loop
      vertex 18 8.28042 15.1236
      vertex 18 8.3 15
      vertex 20 8.28042 15.1236
    endloop
  endfacet
  facet normal -3.47347e-17 -0.987689 0.156431
    outer loop
      vertex 20 8.28042 14.8764
      vertex 20 8.3 15
      vertex 18 8.3 15
    endloop
  endfacet
  facet normal -3.47347e-17 -0.987689 0.156431
    outer loop
      vertex 18 8.28042 14.8764
      vertex 20 8.28042 14.8764
      vertex 18 8.3 15
    endloop
  endfacet
  facet normal -1.00807e-16 -0.891005 0.453993
    outer loop
      vertex 20 8.22361 14.7649
      vertex 20 8.28042 14.8764
      vertex 18 8.28042 14.8764
    endloop
  endfacet
  facet normal -1.00807e-16 -0.891005 0.453993
    outer loop
      vertex 18 8.22361 14.7649
      vertex 20 8.22361 14.7649
      vertex 18 8.28042 14.8764
    endloop
  endfacet
  facet normal -1.57009e-16 -0.707107 0.707107
    outer loop
      vertex 20 8.13511 14.6764
      vertex 20 8.22361 14.7649
      vertex 18 8.22361 14.7649
    endloop
  endfacet
  facet normal -1.57009e-16 -0.707107 0.707107
    outer loop
      vertex 18 8.13511 14.6764
      vertex 20 8.13511 14.6764
      vertex 18 8.22361 14.7649
    endloop
  endfacet
  facet normal -1.97843e-16 -0.453993 0.891005
    outer loop
      vertex 20 8.02361 14.6196
      vertex 20 8.13511 14.6764
      vertex 18 8.13511 14.6764
    endloop
  endfacet
  facet normal -1.97843e-16 -0.453993 0.891005
    outer loop
      vertex 18 8.02361 14.6196
      vertex 20 8.02361 14.6196
      vertex 18 8.13511 14.6764
    endloop
  endfacet
  facet normal -2.19311e-16 -0.156431 0.987689
    outer loop
      vertex 20 7.9 14.6
      vertex 20 8.02361 14.6196
      vertex 18 8.02361 14.6196
    endloop
  endfacet
  facet normal -2.19311e-16 -0.156431 0.987689
    outer loop
      vertex 18 7.9 14.6
      vertex 20 7.9 14.6
      vertex 18 8.02361 14.6196
    endloop
  endfacet
  facet normal -2.19311e-16 0.156431 0.987689
    outer loop
      vertex 20 7.77639 14.6196
      vertex 20 7.9 14.6
      vertex 18 7.9 14.6
    endloop
  endfacet
  facet normal -2.19311e-16 0.156431 0.987689
    outer loop
      vertex 18 7.77639 14.6196
      vertex 20 7.77639 14.6196
      vertex 18 7.9 14.6
    endloop
  endfacet
  facet normal -1.97843e-16 0.453993 0.891005
    outer loop
      vertex 20 7.66489 14.6764
      vertex 20 7.77639 14.6196
      vertex 18 7.77639 14.6196
    endloop
  endfacet
  facet normal -1.97843e-16 0.453993 0.891005
    outer loop
      vertex 18 7.66489 14.6764
      vertex 20 7.66489 14.6764
      vertex 18 7.77639 14.6196
    endloop
  endfacet
  facet normal -1.57009e-16 0.707107 0.707107
    outer loop
      vertex 20 7.66489 14.6764
      vertex 18 7.66489 14.6764
      vertex 20 7.57639 14.7649
    endloop
  endfacet
  facet normal -1.57009e-16 0.707107 0.707107
    outer loop
      vertex 20 7.57639 14.7649
      vertex 18 7.66489 14.6764
      vertex 18 7.57639 14.7649
    endloop
  endfacet
endsolid OpenSCAD_Model
