solid OpenSCAD_Model
  facet normal -1 0 0
    outer loop
      vertex 0 7.76336 17.4271
      vertex 0 0 22
      vertex 0 12 22
    endloop
  endfacet
  facet normal -1 0 0
    outer loop
      vertex 0 0 0
      vertex 0 0 22
      vertex 0 3 15
    endloop
  endfacet
  facet normal -1 0 0
    outer loop
      vertex 0 0 0
      vertex 0 3 15
      vertex 0 3.14683 14.0729
    endloop
  endfacet
  facet normal -1 0 0
    outer loop
      vertex 0 0 0
      vertex 0 3.14683 14.0729
      vertex 0 3.57295 13.2366
    endloop
  endfacet
  facet normal -1 0 0
    outer loop
      vertex 0 0 0
      vertex 0 3.57295 13.2366
      vertex 0 12 0
    endloop
  endfacet
  facet normal -1 0 0
    outer loop
      vertex 0 5.07295 12.1468
      vertex 0 12 0
      vertex 0 4.23664 12.5729
    endloop
  endfacet
  facet normal -1 0 0
    outer loop
      vertex 0 4.23664 12.5729
      vertex 0 12 0
      vertex 0 3.57295 13.2366
    endloop
  endfacet
  facet normal -1 0 0
    outer loop
      vertex 0 6 12
      vertex 0 12 0
      vertex 0 5.07295 12.1468
    endloop
  endfacet
  facet normal -1 0 0
    outer loop
      vertex 0 9 15
      vertex 0 12 22
      vertex 0 8.85317 14.0729
    endloop
  endfacet
  facet normal -1 0 0
    outer loop
      vertex 0 12 0
      vertex 0 6 12
      vertex 0 6.92705 12.1468
    endloop
  endfacet
  facet normal -1 0 0
    outer loop
      vertex 0 12 0
      vertex 0 6.92705 12.1468
      vertex 0 7.76336 12.5729
    endloop
  endfacet
  facet normal -1 0 0
    outer loop
      vertex 0 12 0
      vertex 0 7.76336 12.5729
      vertex 0 8.42705 13.2366
    endloop
  endfacet
  facet normal -1 0 0
    outer loop
      vertex 0 12 0
      vertex 0 8.42705 13.2366
      vertex 0 8.85317 14.0729
    endloop
  endfacet
  facet normal -1 0 0
    outer loop
      vertex 0 12 0
      vertex 0 8.85317 14.0729
      vertex 0 12 22
    endloop
  endfacet
  facet normal -1 0 0
    outer loop
      vertex 0 8.85317 15.9271
      vertex 0 12 22
      vertex 0 9 15
    endloop
  endfacet
  facet normal -1 0 0
    outer loop
      vertex 0 8.42705 16.7634
      vertex 0 12 22
      vertex 0 8.85317 15.9271
    endloop
  endfacet
  facet normal -1 0 0
    outer loop
      vertex 0 3.14683 15.9271
      vertex 0 0 22
      vertex 0 3.57295 16.7634
    endloop
  endfacet
  facet normal -1 0 0
    outer loop
      vertex 0 6 18
      vertex 0 0 22
      vertex 0 6.92705 17.8532
    endloop
  endfacet
  facet normal -1 0 0
    outer loop
      vertex 0 6.92705 17.8532
      vertex 0 0 22
      vertex 0 7.76336 17.4271
    endloop
  endfacet
  facet normal -1 0 0
    outer loop
      vertex 0 8.42705 16.7634
      vertex 0 7.76336 17.4271
      vertex 0 12 22
    endloop
  endfacet
  facet normal -1 0 0
    outer loop
      vertex 0 5.07295 17.8532
      vertex 0 0 22
      vertex 0 6 18
    endloop
  endfacet
  facet normal -1 0 0
    outer loop
      vertex 0 4.23664 17.4271
      vertex 0 0 22
      vertex 0 5.07295 17.8532
    endloop
  endfacet
  facet normal -1 0 0
    outer loop
      vertex 0 3.57295 16.7634
      vertex 0 0 22
      vertex 0 4.23664 17.4271
    endloop
  endfacet
  facet normal -1 0 0
    outer loop
      vertex 0 3 15
      vertex 0 0 22
      vertex 0 3.14683 15.9271
    endloop
  endfacet
  facet normal 0 -1 0
    outer loop
      vertex 2 0 2
      vertex 0 0 0
      vertex 40 0 0
    endloop
  endfacet
  facet normal 0 -1 0
    outer loop
      vertex 2 0 2
      vertex 2 0 22
      vertex 0 0 22
    endloop
  endfacet
  facet normal 0 -1 0
    outer loop
      vertex 40 0 22
      vertex 38 0 22
      vertex 40 0 0
    endloop
  endfacet
  facet normal 0 -1 0
    outer loop
      vertex 38 0 22
      vertex 38 0 2
      vertex 40 0 0
    endloop
  endfacet
  facet normal 0 -1 0
    outer loop
      vertex 0 0 22
      vertex 0 0 0
      vertex 2 0 2
    endloop
  endfacet
  facet normal 0 -1 0
    outer loop
      vertex 38 0 2
      vertex 2 0 2
      vertex 40 0 0
    endloop
  endfacet
  facet normal 0 0 -1
    outer loop
      vertex 0 0 0
      vertex 0 12 0
      vertex 40 0 0
    endloop
  endfacet
  facet normal 0 0 -1
    outer loop
      vertex 40 0 0
      vertex 0 12 0
      vertex 40 12 0
    endloop
  endfacet
  facet normal 0 1 0
    outer loop
      vertex 38 12 2
      vertex 40 12 0
      vertex 2 12 2
    endloop
  endfacet
  facet normal 0 1 0
    outer loop
      vertex 0 12 0
      vertex 0 12 22
      vertex 2 12 2
    endloop
  endfacet
  facet normal 0 1 0
    outer loop
      vertex 0 12 0
      vertex 2 12 2
      vertex 40 12 0
    endloop
  endfacet
  facet normal 0 1 0
    outer loop
      vertex 40 12 0
      vertex 38 12 2
      vertex 38 12 22
    endloop
  endfacet
  facet normal 0 1 0
    outer loop
      vertex 40 12 0
      vertex 38 12 22
      vertex 40 12 22
    endloop
  endfacet
  facet normal 0 1 0
    outer loop
      vertex 2 12 2
      vertex 0 12 22
      vertex 2 12 22
    endloop
  endfacet
  facet normal 0 0 1
    outer loop
      vertex 0 12 22
      vertex 0 0 22
      vertex 2 0 22
    endloop
  endfacet
  facet normal 0 0 1
    outer loop
      vertex 2 12 22
      vertex 0 12 22
      vertex 2 0 22
    endloop
  endfacet
  facet normal -3.47353e-17 0.987688 0.156434
    outer loop
      vertex 2 3.14683 14.0729
      vertex 0 3.14683 14.0729
      vertex 2 3 15
    endloop
  endfacet
  facet normal -3.47353e-17 0.987688 0.156434
    outer loop
      vertex 2 3 15
      vertex 0 3.14683 14.0729
      vertex 0 3 15
    endloop
  endfacet
  facet normal 3.47353e-17 0.987688 -0.156434
    outer loop
      vertex 2 3.14683 15.9271
      vertex 2 3 15
      vertex 0 3.14683 15.9271
    endloop
  endfacet
  facet normal 3.47353e-17 0.987688 -0.156434
    outer loop
      vertex 0 3.14683 15.9271
      vertex 2 3 15
      vertex 0 3 15
    endloop
  endfacet
  facet normal 1.00806e-16 0.891006 -0.453991
    outer loop
      vertex 2 3.57295 16.7634
      vertex 2 3.14683 15.9271
      vertex 0 3.57295 16.7634
    endloop
  endfacet
  facet normal 1.00806e-16 0.891006 -0.453991
    outer loop
      vertex 0 3.57295 16.7634
      vertex 2 3.14683 15.9271
      vertex 0 3.14683 15.9271
    endloop
  endfacet
  facet normal 1.57009e-16 0.707107 -0.707107
    outer loop
      vertex 2 4.23664 17.4271
      vertex 2 3.57295 16.7634
      vertex 0 4.23664 17.4271
    endloop
  endfacet
  facet normal 1.57009e-16 0.707107 -0.707107
    outer loop
      vertex 0 4.23664 17.4271
      vertex 2 3.57295 16.7634
      vertex 0 3.57295 16.7634
    endloop
  endfacet
  facet normal 1.97843e-16 0.453991 -0.891006
    outer loop
      vertex 2 5.07295 17.8532
      vertex 2 4.23664 17.4271
      vertex 0 5.07295 17.8532
    endloop
  endfacet
  facet normal 1.97843e-16 0.453991 -0.891006
    outer loop
      vertex 0 5.07295 17.8532
      vertex 2 4.23664 17.4271
      vertex 0 4.23664 17.4271
    endloop
  endfacet
  facet normal 2.19311e-16 0.156434 -0.987688
    outer loop
      vertex 2 6 18
      vertex 2 5.07295 17.8532
      vertex 0 6 18
    endloop
  endfacet
  facet normal 2.19311e-16 0.156434 -0.987688
    outer loop
      vertex 0 6 18
      vertex 2 5.07295 17.8532
      vertex 0 5.07295 17.8532
    endloop
  endfacet
  facet normal 2.19311e-16 -0.156434 -0.987688
    outer loop
      vertex 2 6.92705 17.8532
      vertex 2 6 18
      vertex 0 6.92705 17.8532
    endloop
  endfacet
  facet normal 2.19311e-16 -0.156434 -0.987688
    outer loop
      vertex 0 6.92705 17.8532
      vertex 2 6 18
      vertex 0 6 18
    endloop
  endfacet
  facet normal 1.97843e-16 -0.453991 -0.891006
    outer loop
      vertex 2 7.76336 17.4271
      vertex 2 6.92705 17.8532
      vertex 0 7.76336 17.4271
    endloop
  endfacet
  facet normal 1.97843e-16 -0.453991 -0.891006
    outer loop
      vertex 0 7.76336 17.4271
      vertex 2 6.92705 17.8532
      vertex 0 6.92705 17.8532
    endloop
  endfacet
  facet normal 1.57009e-16 -0.707107 -0.707107
    outer loop
      vertex 0 8.42705 16.7634
      vertex 2 8.42705 16.7634
      vertex 2 7.76336 17.4271
    endloop
  endfacet
  facet normal 1.57009e-16 -0.707107 -0.707107
    outer loop
      vertex 0 7.76336 17.4271
      vertex 0 8.42705 16.7634
      vertex 2 7.76336 17.4271
    endloop
  endfacet
  facet normal 1.00806e-16 -0.891006 -0.453991
    outer loop
      vertex 0 8.85317 15.9271
      vertex 2 8.85317 15.9271
      vertex 2 8.42705 16.7634
    endloop
  endfacet
  facet normal 1.00806e-16 -0.891006 -0.453991
    outer loop
      vertex 0 8.42705 16.7634
      vertex 0 8.85317 15.9271
      vertex 2 8.42705 16.7634
    endloop
  endfacet
  facet normal 3.47353e-17 -0.987688 -0.156434
    outer loop
      vertex 0 9 15
      vertex 2 9 15
      vertex 2 8.85317 15.9271
    endloop
  endfacet
  facet normal 3.47353e-17 -0.987688 -0.156434
    outer loop
      vertex 0 8.85317 15.9271
      vertex 0 9 15
      vertex 2 8.85317 15.9271
    endloop
  endfacet
  facet normal -3.47353e-17 -0.987688 0.156434
    outer loop
      vertex 2 8.85317 14.0729
      vertex 2 9 15
      vertex 0 9 15
    endloop
  endfacet
  facet normal -3.47353e-17 -0.987688 0.156434
    outer loop
      vertex 0 8.85317 14.0729
      vertex 2 8.85317 14.0729
      vertex 0 9 15
    endloop
  endfacet
  facet normal -1.00806e-16 -0.891006 0.453991
    outer loop
      vertex 2 8.42705 13.2366
      vertex 2 8.85317 14.0729
      vertex 0 8.85317 14.0729
    endloop
  endfacet
  facet normal -1.00806e-16 -0.891006 0.453991
    outer loop
      vertex 0 8.42705 13.2366
      vertex 2 8.42705 13.2366
      vertex 0 8.85317 14.0729
    endloop
  endfacet
  facet normal -1.57009e-16 -0.707107 0.707107
    outer loop
      vertex 2 7.76336 12.5729
      vertex 2 8.42705 13.2366
      vertex 0 8.42705 13.2366
    endloop
  endfacet
  facet normal -1.57009e-16 -0.707107 0.707107
    outer loop
      vertex 0 7.76336 12.5729
      vertex 2 7.76336 12.5729
      vertex 0 8.42705 13.2366
    endloop
  endfacet
  facet normal -1.97843e-16 -0.453991 0.891006
    outer loop
      vertex 2 6.92705 12.1468
      vertex 2 7.76336 12.5729
      vertex 0 7.76336 12.5729
    endloop
  endfacet
  facet normal -1.97843e-16 -0.453991 0.891006
    outer loop
      vertex 0 6.92705 12.1468
      vertex 2 6.92705 12.1468
      vertex 0 7.76336 12.5729
    endloop
  endfacet
  facet normal -2.19311e-16 -0.156434 0.987688
    outer loop
      vertex 2 6 12
      vertex 2 6.92705 12.1468
      vertex 0 6.92705 12.1468
    endloop
  endfacet
  facet normal -2.19311e-16 -0.156434 0.987688
    outer loop
      vertex 0 6 12
      vertex 2 6 12
      vertex 0 6.92705 12.1468
    endloop
  endfacet
  facet normal -2.19311e-16 0.156434 0.987688
    outer loop
      vertex 2 5.07295 12.1468
      vertex 2 6 12
      vertex 0 6 12
    endloop
  endfacet
  facet normal -2.19311e-16 0.156434 0.987688
    outer loop
      vertex 0 5.07295 12.1468
      vertex 2 5.07295 12.1468
      vertex 0 6 12
    endloop
  endfacet
  facet normal -1.97843e-16 0.453991 0.891006
    outer loop
      vertex 2 4.23664 12.5729
      vertex 2 5.07295 12.1468
      vertex 0 5.07295 12.1468
    endloop
  endfacet
  facet normal -1.97843e-16 0.453991 0.891006
    outer loop
      vertex 0 4.23664 12.5729
      vertex 2 4.23664 12.5729
      vertex 0 5.07295 12.1468
    endloop
  endfacet
  facet normal -1.57009e-16 0.707107 0.707107
    outer loop
      vertex 2 4.23664 12.5729
      vertex 0 4.23664 12.5729
      vertex 2 3.57295 13.2366
    endloop
  endfacet
  facet normal -1.57009e-16 0.707107 0.707107
    outer loop
      vertex 2 3.57295 13.2366
      vertex 0 4.23664 12.5729
      vertex 0 3.57295 13.2366
    endloop
  endfacet
  facet normal -1.00806e-16 0.891006 0.453991
    outer loop
      vertex 2 3.57295 13.2366
      vertex 0 3.57295 13.2366
      vertex 2 3.14683 14.0729
    endloop
  endfacet
  facet normal -1.00806e-16 0.891006 0.453991
    outer loop
      vertex 2 3.14683 14.0729
      vertex 0 3.57295 13.2366
      vertex 0 3.14683 14.0729
    endloop
  endfacet
  facet normal 1 0 0
    outer loop
      vertex 2 4.23664 17.4271
      vertex 2 12 22
      vertex 2 0 22
    endloop
  endfacet
  facet normal 1 0 0
    outer loop
      vertex 2 8.42705 13.2366
      vertex 2 7.76336 12.5729
      vertex 2 12 2
    endloop
  endfacet
  facet normal 1 0 0
    outer loop
      vertex 2 0 2
      vertex 2 3 15
      vertex 2 0 22
    endloop
  endfacet
  facet normal 1 0 0
    outer loop
      vertex 2 3 15
      vertex 2 3.14683 15.9271
      vertex 2 0 22
    endloop
  endfacet
  facet normal 1 0 0
    outer loop
      vertex 2 3.57295 16.7634
      vertex 2 4.23664 17.4271
      vertex 2 0 22
    endloop
  endfacet
  facet normal 1 0 0
    outer loop
      vertex 2 5.07295 17.8532
      vertex 2 12 22
      vertex 2 4.23664 17.4271
    endloop
  endfacet
  facet normal 1 0 0
    outer loop
      vertex 2 9 15
      vertex 2 8.85317 14.0729
      vertex 2 12 2
    endloop
  endfacet
  facet normal 1 0 0
    outer loop
      vertex 2 6.92705 17.8532
      vertex 2 12 22
      vertex 2 6 18
    endloop
  endfacet
  facet normal 1 0 0
    outer loop
      vertex 2 6.92705 12.1468
      vertex 2 6 12
      vertex 2 12 2
    endloop
  endfacet
  facet normal 1 0 0
    outer loop
      vertex 2 7.76336 17.4271
      vertex 2 12 22
      vertex 2 6.92705 17.8532
    endloop
  endfacet
  facet normal 1 0 0
    outer loop
      vertex 2 8.42705 16.7634
      vertex 2 12 22
      vertex 2 7.76336 17.4271
    endloop
  endfacet
  facet normal 1 0 0
    outer loop
      vertex 2 8.85317 15.9271
      vertex 2 12 22
      vertex 2 8.42705 16.7634
    endloop
  endfacet
  facet normal 1 0 0
    outer loop
      vertex 2 12 2
      vertex 2 12 22
      vertex 2 8.85317 15.9271
    endloop
  endfacet
  facet normal 1 0 0
    outer loop
      vertex 2 8.85317 14.0729
      vertex 2 8.42705 13.2366
      vertex 2 12 2
    endloop
  endfacet
  facet normal 1 0 0
    outer loop
      vertex 2 12 2
      vertex 2 8.85317 15.9271
      vertex 2 9 15
    endloop
  endfacet
  facet normal 1 0 0
    outer loop
      vertex 2 6 12
      vertex 2 5.07295 12.1468
      vertex 2 12 2
    endloop
  endfacet
  facet normal 1 0 0
    outer loop
      vertex 2 12 2
      vertex 2 7.76336 12.5729
      vertex 2 6.92705 12.1468
    endloop
  endfacet
  facet normal 1 0 0
    outer loop
      vertex 2 5.07295 17.8532
      vertex 2 6 18
      vertex 2 12 22
    endloop
  endfacet
  facet normal 1 0 0
    outer loop
      vertex 2 0 2
      vertex 2 12 2
      vertex 2 4.23664 12.5729
    endloop
  endfacet
  facet normal 1 0 0
    outer loop
      vertex 2 0 2
      vertex 2 4.23664 12.5729
      vertex 2 3.57295 13.2366
    endloop
  endfacet
  facet normal 1 0 0
    outer loop
      vertex 2 0 2
      vertex 2 3.14683 14.0729
      vertex 2 3 15
    endloop
  endfacet
  facet normal 1 0 0
    outer loop
      vertex 2 0 2
      vertex 2 3.57295 13.2366
      vertex 2 3.14683 14.0729
    endloop
  endfacet
  facet normal 1 0 0
    outer loop
      vertex 2 5.07295 12.1468
      vertex 2 4.23664 12.5729
      vertex 2 12 2
    endloop
  endfacet
  facet normal 1 0 0
    outer loop
      vertex 2 3.14683 15.9271
      vertex 2 3.57295 16.7634
      vertex 2 0 22
    endloop
  endfacet
  facet normal 0 0 1
    outer loop
      vertex 38 0 2
      vertex 38 12 2
      vertex 2 12 2
    endloop
  endfacet
  facet normal 0 0 1
    outer loop
      vertex 2 0 2
      vertex 38 0 2
      vertex 2 12 2
    endloop
  endfacet
  facet normal -1 0 0
    outer loop
      vertex 38 3.9382 14.8824
      vertex 38 12 2
      vertex 38 0 2
    endloop
  endfacet
  facet normal -1 0 0
    outer loop
      vertex 38 4.29021 14.9382
      vertex 38 12 2
      vertex 38 4.2618 14.8824
    endloop
  endfacet
  facet normal -1 0 0
    outer loop
      vertex 38 0 22
      vertex 38 3.90979 14.9382
      vertex 38 0 2
    endloop
  endfacet
  facet normal -1 0 0
    outer loop
      vertex 38 3.90979 14.9382
      vertex 38 3.9382 14.8824
      vertex 38 0 2
    endloop
  endfacet
  facet normal -1 0 0
    outer loop
      vertex 38 4.0382 14.8098
      vertex 38 12 2
      vertex 38 3.98244 14.8382
    endloop
  endfacet
  facet normal -1 0 0
    outer loop
      vertex 38 3.98244 14.8382
      vertex 38 12 2
      vertex 38 3.9382 14.8824
    endloop
  endfacet
  facet normal -1 0 0
    outer loop
      vertex 38 4.1 14.8
      vertex 38 12 2
      vertex 38 4.0382 14.8098
    endloop
  endfacet
  facet normal -1 0 0
    outer loop
      vertex 38 4.1618 14.8098
      vertex 38 12 2
      vertex 38 4.1 14.8
    endloop
  endfacet
  facet normal -1 0 0
    outer loop
      vertex 38 4.21756 14.8382
      vertex 38 12 2
      vertex 38 4.1618 14.8098
    endloop
  endfacet
  facet normal -1 0 0
    outer loop
      vertex 38 4.2618 14.8824
      vertex 38 12 2
      vertex 38 4.21756 14.8382
    endloop
  endfacet
  facet normal -1 0 0
    outer loop
      vertex 38 7.70979 14.9382
      vertex 38 12 2
      vertex 38 4.29021 14.9382
    endloop
  endfacet
  facet normal -1 0 0
    outer loop
      vertex 38 12 22
      vertex 38 4.29021 14.9382
      vertex 38 4.3 15
    endloop
  endfacet
  facet normal -1 0 0
    outer loop
      vertex 38 12 22
      vertex 38 4.3 15
      vertex 38 4.29021 15.0618
    endloop
  endfacet
  facet normal -1 0 0
    outer loop
      vertex 38 12 22
      vertex 38 4.29021 15.0618
      vertex 38 4.2618 15.1176
    endloop
  endfacet
  facet normal -1 0 0
    outer loop
      vertex 38 12 22
      vertex 38 4.2618 15.1176
      vertex 38 0 22
    endloop
  endfacet
  facet normal -1 0 0
    outer loop
      vertex 38 4.1618 15.1902
      vertex 38 0 22
      vertex 38 4.21756 15.1618
    endloop
  endfacet
  facet normal -1 0 0
    outer loop
      vertex 38 4.1 15.2
      vertex 38 0 22
      vertex 38 4.1618 15.1902
    endloop
  endfacet
  facet normal -1 0 0
    outer loop
      vertex 38 4.21756 15.1618
      vertex 38 0 22
      vertex 38 4.2618 15.1176
    endloop
  endfacet
  facet normal -1 0 0
    outer loop
      vertex 38 4.0382 15.1902
      vertex 38 0 22
      vertex 38 4.1 15.2
    endloop
  endfacet
  facet normal -1 0 0
    outer loop
      vertex 38 3.98244 15.1618
      vertex 38 0 22
      vertex 38 4.0382 15.1902
    endloop
  endfacet
  facet normal -1 0 0
    outer loop
      vertex 38 3.9382 15.1176
      vertex 38 0 22
      vertex 38 3.98244 15.1618
    endloop
  endfacet
  facet normal -1 0 0
    outer loop
      vertex 38 3.90979 15.0618
      vertex 38 0 22
      vertex 38 3.9382 15.1176
    endloop
  endfacet
  facet normal -1 0 0
    outer loop
      vertex 38 3.9 15
      vertex 38 0 22
      vertex 38 3.90979 15.0618
    endloop
  endfacet
  facet normal -1 0 0
    outer loop
      vertex 38 8.1 15
      vertex 38 12 22
      vertex 38 8.09021 14.9382
    endloop
  endfacet
  facet normal -1 0 0
    outer loop
      vertex 38 7.7382 14.8824
      vertex 38 12 2
      vertex 38 7.70979 14.9382
    endloop
  endfacet
  facet normal -1 0 0
    outer loop
      vertex 38 7.7 15
      vertex 38 7.70979 14.9382
      vertex 38 4.29021 14.9382
    endloop
  endfacet
  facet normal -1 0 0
    outer loop
      vertex 38 7.78244 14.8382
      vertex 38 12 2
      vertex 38 7.7382 14.8824
    endloop
  endfacet
  facet normal -1 0 0
    outer loop
      vertex 38 7.8382 14.8098
      vertex 38 12 2
      vertex 38 7.78244 14.8382
    endloop
  endfacet
  facet normal -1 0 0
    outer loop
      vertex 38 7.9 14.8
      vertex 38 12 2
      vertex 38 7.8382 14.8098
    endloop
  endfacet
  facet normal -1 0 0
    outer loop
      vertex 38 7.9618 14.8098
      vertex 38 12 2
      vertex 38 7.9 14.8
    endloop
  endfacet
  facet normal -1 0 0
    outer loop
      vertex 38 8.01756 14.8382
      vertex 38 12 2
      vertex 38 7.9618 14.8098
    endloop
  endfacet
  facet normal -1 0 0
    outer loop
      vertex 38 8.0618 14.8824
      vertex 38 12 2
      vertex 38 8.01756 14.8382
    endloop
  endfacet
  facet normal -1 0 0
    outer loop
      vertex 38 12 22
      vertex 38 12 2
      vertex 38 8.0618 14.8824
    endloop
  endfacet
  facet normal -1 0 0
    outer loop
      vertex 38 12 22
      vertex 38 8.0618 14.8824
      vertex 38 8.09021 14.9382
    endloop
  endfacet
  facet normal -1 0 0
    outer loop
      vertex 38 8.09021 15.0618
      vertex 38 12 22
      vertex 38 8.1 15
    endloop
  endfacet
  facet normal -1 0 0
    outer loop
      vertex 38 8.0618 15.1176
      vertex 38 12 22
      vertex 38 8.09021 15.0618
    endloop
  endfacet
  facet normal -1 0 0
    outer loop
      vertex 38 8.01756 15.1618
      vertex 38 12 22
      vertex 38 8.0618 15.1176
    endloop
  endfacet
  facet normal -1 0 0
    outer loop
      vertex 38 7.9618 15.1902
      vertex 38 12 22
      vertex 38 8.01756 15.1618
    endloop
  endfacet
  facet normal -1 0 0
    outer loop
      vertex 38 7.9 15.2
      vertex 38 12 22
      vertex 38 7.9618 15.1902
    endloop
  endfacet
  facet normal -1 0 0
    outer loop
      vertex 38 7.8382 15.1902
      vertex 38 12 22
      vertex 38 7.9 15.2
    endloop
  endfacet
  facet normal -1 0 0
    outer loop
      vertex 38 12 22
      vertex 38 7.8382 15.1902
      vertex 38 4.29021 14.9382
    endloop
  endfacet
  facet normal -1 0 0
    outer loop
      vertex 38 7.8382 15.1902
      vertex 38 7.78244 15.1618
      vertex 38 4.29021 14.9382
    endloop
  endfacet
  facet normal -1 0 0
    outer loop
      vertex 38 7.78244 15.1618
      vertex 38 7.7382 15.1176
      vertex 38 4.29021 14.9382
    endloop
  endfacet
  facet normal -1 0 0
    outer loop
      vertex 38 7.7382 15.1176
      vertex 38 7.70979 15.0618
      vertex 38 4.29021 14.9382
    endloop
  endfacet
  facet normal -1 0 0
    outer loop
      vertex 38 7.70979 15.0618
      vertex 38 7.7 15
      vertex 38 4.29021 14.9382
    endloop
  endfacet
  facet normal -1 0 0
    outer loop
      vertex 38 3.90979 14.9382
      vertex 38 0 22
      vertex 38 3.9 15
    endloop
  endfacet
  facet normal 0 0 1
    outer loop
      vertex 38 12 22
      vertex 38 0 22
      vertex 40 0 22
    endloop
  endfacet
  facet normal 0 0 1
    outer loop
      vertex 40 12 22
      vertex 38 12 22
      vertex 40 0 22
    endloop
  endfacet
  facet normal 1 0 0
    outer loop
      vertex 40 0 22
      vertex 40 0 0
      vertex 40 12 0
    endloop
  endfacet
  facet normal 1 0 0
    outer loop
      vertex 40 3.9382 14.8824
      vertex 40 0 22
      vertex 40 12 0
    endloop
  endfacet
  facet normal 1 0 0
    outer loop
      vertex 40 7.7382 15.1176
      vertex 40 7.78244 15.1618
      vertex 40 12 22
    endloop
  endfacet
  facet normal 1 0 0
    outer loop
      vertex 40 3.9 15
      vertex 40 0 22
      vertex 40 3.90979 14.9382
    endloop
  endfacet
  facet normal 1 0 0
    outer loop
      vertex 40 3.90979 15.0618
      vertex 40 0 22
      vertex 40 3.9 15
    endloop
  endfacet
  facet normal 1 0 0
    outer loop
      vertex 40 3.9382 15.1176
      vertex 40 0 22
      vertex 40 3.90979 15.0618
    endloop
  endfacet
  facet normal 1 0 0
    outer loop
      vertex 40 3.98244 15.1618
      vertex 40 0 22
      vertex 40 3.9382 15.1176
    endloop
  endfacet
  facet normal 1 0 0
    outer loop
      vertex 40 4.0382 15.1902
      vertex 40 4.1 15.2
      vertex 40 12 22
    endloop
  endfacet
  facet normal 1 0 0
    outer loop
      vertex 40 12 22
      vertex 40 0 22
      vertex 40 3.98244 15.1618
    endloop
  endfacet
  facet normal 1 0 0
    outer loop
      vertex 40 4.1 15.2
      vertex 40 4.1618 15.1902
      vertex 40 12 22
    endloop
  endfacet
  facet normal 1 0 0
    outer loop
      vertex 40 4.1618 15.1902
      vertex 40 4.21756 15.1618
      vertex 40 12 22
    endloop
  endfacet
  facet normal 1 0 0
    outer loop
      vertex 40 4.29021 15.0618
      vertex 40 4.3 15
      vertex 40 12 0
    endloop
  endfacet
  facet normal 1 0 0
    outer loop
      vertex 40 3.98244 14.8382
      vertex 40 3.9382 14.8824
      vertex 40 12 0
    endloop
  endfacet
  facet normal 1 0 0
    outer loop
      vertex 40 7.70979 14.9382
      vertex 40 4.2618 15.1176
      vertex 40 12 0
    endloop
  endfacet
  facet normal 1 0 0
    outer loop
      vertex 40 12 22
      vertex 40 4.21756 15.1618
      vertex 40 4.2618 15.1176
    endloop
  endfacet
  facet normal 1 0 0
    outer loop
      vertex 40 4.2618 15.1176
      vertex 40 4.29021 15.0618
      vertex 40 12 0
    endloop
  endfacet
  facet normal 1 0 0
    outer loop
      vertex 40 4.3 15
      vertex 40 4.29021 14.9382
      vertex 40 12 0
    endloop
  endfacet
  facet normal 1 0 0
    outer loop
      vertex 40 4.29021 14.9382
      vertex 40 4.2618 14.8824
      vertex 40 12 0
    endloop
  endfacet
  facet normal 1 0 0
    outer loop
      vertex 40 4.2618 14.8824
      vertex 40 4.21756 14.8382
      vertex 40 12 0
    endloop
  endfacet
  facet normal 1 0 0
    outer loop
      vertex 40 4.21756 14.8382
      vertex 40 4.1618 14.8098
      vertex 40 12 0
    endloop
  endfacet
  facet normal 1 0 0
    outer loop
      vertex 40 4.1618 14.8098
      vertex 40 4.1 14.8
      vertex 40 12 0
    endloop
  endfacet
  facet normal 1 0 0
    outer loop
      vertex 40 4.1 14.8
      vertex 40 4.0382 14.8098
      vertex 40 12 0
    endloop
  endfacet
  facet normal 1 0 0
    outer loop
      vertex 40 4.0382 14.8098
      vertex 40 3.98244 14.8382
      vertex 40 12 0
    endloop
  endfacet
  facet normal 1 0 0
    outer loop
      vertex 40 3.90979 14.9382
      vertex 40 0 22
      vertex 40 3.9382 14.8824
    endloop
  endfacet
  facet normal 1 0 0
    outer loop
      vertex 40 7.7382 14.8824
      vertex 40 7.70979 14.9382
      vertex 40 12 0
    endloop
  endfacet
  facet normal 1 0 0
    outer loop
      vertex 40 7.7 15
      vertex 40 4.2618 15.1176
      vertex 40 7.70979 14.9382
    endloop
  endfacet
  facet normal 1 0 0
    outer loop
      vertex 40 7.70979 15.0618
      vertex 40 4.2618 15.1176
      vertex 40 7.7 15
    endloop
  endfacet
  facet normal 1 0 0
    outer loop
      vertex 40 7.7382 15.1176
      vertex 40 4.2618 15.1176
      vertex 40 7.70979 15.0618
    endloop
  endfacet
  facet normal 1 0 0
    outer loop
      vertex 40 7.78244 15.1618
      vertex 40 7.8382 15.1902
      vertex 40 12 22
    endloop
  endfacet
  facet normal 1 0 0
    outer loop
      vertex 40 12 22
      vertex 40 4.2618 15.1176
      vertex 40 7.7382 15.1176
    endloop
  endfacet
  facet normal 1 0 0
    outer loop
      vertex 40 7.8382 15.1902
      vertex 40 7.9 15.2
      vertex 40 12 22
    endloop
  endfacet
  facet normal 1 0 0
    outer loop
      vertex 40 8.1 15
      vertex 40 8.09021 14.9382
      vertex 40 12 0
    endloop
  endfacet
  facet normal 1 0 0
    outer loop
      vertex 40 8.01756 14.8382
      vertex 40 7.9618 14.8098
      vertex 40 12 0
    endloop
  endfacet
  facet normal 1 0 0
    outer loop
      vertex 40 12 22
      vertex 40 7.9 15.2
      vertex 40 7.9618 15.1902
    endloop
  endfacet
  facet normal 1 0 0
    outer loop
      vertex 40 8.0618 14.8824
      vertex 40 8.01756 14.8382
      vertex 40 12 0
    endloop
  endfacet
  facet normal 1 0 0
    outer loop
      vertex 40 12 22
      vertex 40 7.9618 15.1902
      vertex 40 8.01756 15.1618
    endloop
  endfacet
  facet normal 1 0 0
    outer loop
      vertex 40 8.09021 14.9382
      vertex 40 8.0618 14.8824
      vertex 40 12 0
    endloop
  endfacet
  facet normal 1 0 0
    outer loop
      vertex 40 12 22
      vertex 40 8.01756 15.1618
      vertex 40 8.0618 15.1176
    endloop
  endfacet
  facet normal 1 0 0
    outer loop
      vertex 40 12 22
      vertex 40 8.09021 15.0618
      vertex 40 12 0
    endloop
  endfacet
  facet normal 1 0 0
    outer loop
      vertex 40 12 22
      vertex 40 8.0618 15.1176
      vertex 40 8.09021 15.0618
    endloop
  endfacet
  facet normal 1 0 0
    outer loop
      vertex 40 8.09021 15.0618
      vertex 40 8.1 15
      vertex 40 12 0
    endloop
  endfacet
  facet normal 1 0 0
    outer loop
      vertex 40 7.9618 14.8098
      vertex 40 7.9 14.8
      vertex 40 12 0
    endloop
  endfacet
  facet normal 1 0 0
    outer loop
      vertex 40 7.9 14.8
      vertex 40 7.8382 14.8098
      vertex 40 12 0
    endloop
  endfacet
  facet normal 1 0 0
    outer loop
      vertex 40 7.8382 14.8098
      vertex 40 7.78244 14.8382
      vertex 40 12 0
    endloop
  endfacet
  facet normal 1 0 0
    outer loop
      vertex 40 7.78244 14.8382
      vertex 40 7.7382 14.8824
      vertex 40 12 0
    endloop
  endfacet
  facet normal 1 0 0
    outer loop
      vertex 40 3.98244 15.1618
      vertex 40 4.0382 15.1902
      vertex 40 12 22
    endloop
  endfacet
  facet normal -3.47367e-17 0.987687 0.15644
    outer loop
      vertex 40 3.90979 14.9382
      vertex 38 3.90979 14.9382
      vertex 40 3.9 15
    endloop
  endfacet
  facet normal -3.47367e-17 0.987687 0.15644
    outer loop
      vertex 40 3.9 15
      vertex 38 3.90979 14.9382
      vertex 38 3.9 15
    endloop
  endfacet
  facet normal -1.00806e-16 0.891007 0.453989
    outer loop
      vertex 40 3.9382 14.8824
      vertex 38 3.9382 14.8824
      vertex 40 3.90979 14.9382
    endloop
  endfacet
  facet normal -1.00806e-16 0.891007 0.453989
    outer loop
      vertex 40 3.90979 14.9382
      vertex 38 3.9382 14.8824
      vertex 38 3.90979 14.9382
    endloop
  endfacet
  facet normal 3.47367e-17 0.987687 -0.15644
    outer loop
      vertex 40 3.90979 15.0618
      vertex 40 3.9 15
      vertex 38 3.90979 15.0618
    endloop
  endfacet
  facet normal 3.47367e-17 0.987687 -0.15644
    outer loop
      vertex 38 3.90979 15.0618
      vertex 40 3.9 15
      vertex 38 3.9 15
    endloop
  endfacet
  facet normal 1.00806e-16 0.891007 -0.453989
    outer loop
      vertex 40 3.9382 15.1176
      vertex 40 3.90979 15.0618
      vertex 38 3.9382 15.1176
    endloop
  endfacet
  facet normal 1.00806e-16 0.891007 -0.453989
    outer loop
      vertex 38 3.9382 15.1176
      vertex 40 3.90979 15.0618
      vertex 38 3.90979 15.0618
    endloop
  endfacet
  facet normal 1.57009e-16 0.707107 -0.707107
    outer loop
      vertex 40 3.98244 15.1618
      vertex 40 3.9382 15.1176
      vertex 38 3.98244 15.1618
    endloop
  endfacet
  facet normal 1.57009e-16 0.707107 -0.707107
    outer loop
      vertex 38 3.98244 15.1618
      vertex 40 3.9382 15.1176
      vertex 38 3.9382 15.1176
    endloop
  endfacet
  facet normal 1.97843e-16 0.453989 -0.891007
    outer loop
      vertex 40 4.0382 15.1902
      vertex 40 3.98244 15.1618
      vertex 38 4.0382 15.1902
    endloop
  endfacet
  facet normal 1.97843e-16 0.453989 -0.891007
    outer loop
      vertex 38 4.0382 15.1902
      vertex 40 3.98244 15.1618
      vertex 38 3.98244 15.1618
    endloop
  endfacet
  facet normal 2.19311e-16 0.15644 -0.987687
    outer loop
      vertex 40 4.1 15.2
      vertex 40 4.0382 15.1902
      vertex 38 4.1 15.2
    endloop
  endfacet
  facet normal 2.19311e-16 0.15644 -0.987687
    outer loop
      vertex 38 4.1 15.2
      vertex 40 4.0382 15.1902
      vertex 38 4.0382 15.1902
    endloop
  endfacet
  facet normal 2.19311e-16 -0.15644 -0.987687
    outer loop
      vertex 40 4.1618 15.1902
      vertex 40 4.1 15.2
      vertex 38 4.1618 15.1902
    endloop
  endfacet
  facet normal 2.19311e-16 -0.15644 -0.987687
    outer loop
      vertex 38 4.1618 15.1902
      vertex 40 4.1 15.2
      vertex 38 4.1 15.2
    endloop
  endfacet
  facet normal 1.97843e-16 -0.453989 -0.891007
    outer loop
      vertex 40 4.21756 15.1618
      vertex 40 4.1618 15.1902
      vertex 38 4.21756 15.1618
    endloop
  endfacet
  facet normal 1.97843e-16 -0.453989 -0.891007
    outer loop
      vertex 38 4.21756 15.1618
      vertex 40 4.1618 15.1902
      vertex 38 4.1618 15.1902
    endloop
  endfacet
  facet normal 1.57009e-16 -0.707107 -0.707107
    outer loop
      vertex 38 4.2618 15.1176
      vertex 40 4.2618 15.1176
      vertex 40 4.21756 15.1618
    endloop
  endfacet
  facet normal 1.57009e-16 -0.707107 -0.707107
    outer loop
      vertex 38 4.21756 15.1618
      vertex 38 4.2618 15.1176
      vertex 40 4.21756 15.1618
    endloop
  endfacet
  facet normal 1.00806e-16 -0.891007 -0.453989
    outer loop
      vertex 38 4.29021 15.0618
      vertex 40 4.29021 15.0618
      vertex 40 4.2618 15.1176
    endloop
  endfacet
  facet normal 1.00806e-16 -0.891007 -0.453989
    outer loop
      vertex 38 4.2618 15.1176
      vertex 38 4.29021 15.0618
      vertex 40 4.2618 15.1176
    endloop
  endfacet
  facet normal 3.47367e-17 -0.987687 -0.15644
    outer loop
      vertex 38 4.3 15
      vertex 40 4.3 15
      vertex 40 4.29021 15.0618
    endloop
  endfacet
  facet normal 3.47367e-17 -0.987687 -0.15644
    outer loop
      vertex 38 4.29021 15.0618
      vertex 38 4.3 15
      vertex 40 4.29021 15.0618
    endloop
  endfacet
  facet normal -3.47367e-17 -0.987687 0.15644
    outer loop
      vertex 40 4.29021 14.9382
      vertex 40 4.3 15
      vertex 38 4.3 15
    endloop
  endfacet
  facet normal -3.47367e-17 -0.987687 0.15644
    outer loop
      vertex 38 4.29021 14.9382
      vertex 40 4.29021 14.9382
      vertex 38 4.3 15
    endloop
  endfacet
  facet normal -1.00806e-16 -0.891007 0.453989
    outer loop
      vertex 40 4.2618 14.8824
      vertex 40 4.29021 14.9382
      vertex 38 4.29021 14.9382
    endloop
  endfacet
  facet normal -1.00806e-16 -0.891007 0.453989
    outer loop
      vertex 38 4.2618 14.8824
      vertex 40 4.2618 14.8824
      vertex 38 4.29021 14.9382
    endloop
  endfacet
  facet normal -1.57009e-16 -0.707107 0.707107
    outer loop
      vertex 40 4.21756 14.8382
      vertex 40 4.2618 14.8824
      vertex 38 4.2618 14.8824
    endloop
  endfacet
  facet normal -1.57009e-16 -0.707107 0.707107
    outer loop
      vertex 38 4.21756 14.8382
      vertex 40 4.21756 14.8382
      vertex 38 4.2618 14.8824
    endloop
  endfacet
  facet normal -1.97843e-16 -0.453989 0.891007
    outer loop
      vertex 40 4.1618 14.8098
      vertex 40 4.21756 14.8382
      vertex 38 4.21756 14.8382
    endloop
  endfacet
  facet normal -1.97843e-16 -0.453989 0.891007
    outer loop
      vertex 38 4.1618 14.8098
      vertex 40 4.1618 14.8098
      vertex 38 4.21756 14.8382
    endloop
  endfacet
  facet normal -2.19311e-16 -0.15644 0.987687
    outer loop
      vertex 40 4.1 14.8
      vertex 40 4.1618 14.8098
      vertex 38 4.1618 14.8098
    endloop
  endfacet
  facet normal -2.19311e-16 -0.15644 0.987687
    outer loop
      vertex 38 4.1 14.8
      vertex 40 4.1 14.8
      vertex 38 4.1618 14.8098
    endloop
  endfacet
  facet normal -2.19311e-16 0.15644 0.987687
    outer loop
      vertex 40 4.0382 14.8098
      vertex 40 4.1 14.8
      vertex 38 4.1 14.8
    endloop
  endfacet
  facet normal -2.19311e-16 0.15644 0.987687
    outer loop
      vertex 38 4.0382 14.8098
      vertex 40 4.0382 14.8098
      vertex 38 4.1 14.8
    endloop
  endfacet
  facet normal -1.97843e-16 0.453989 0.891007
    outer loop
      vertex 40 3.98244 14.8382
      vertex 40 4.0382 14.8098
      vertex 38 4.0382 14.8098
    endloop
  endfacet
  facet normal -1.97843e-16 0.453989 0.891007
    outer loop
      vertex 38 3.98244 14.8382
      vertex 40 3.98244 14.8382
      vertex 38 4.0382 14.8098
    endloop
  endfacet
  facet normal -1.57009e-16 0.707107 0.707107
    outer loop
      vertex 40 3.98244 14.8382
      vertex 38 3.98244 14.8382
      vertex 40 3.9382 14.8824
    endloop
  endfacet
  facet normal -1.57009e-16 0.707107 0.707107
    outer loop
      vertex 40 3.9382 14.8824
      vertex 38 3.98244 14.8382
      vertex 38 3.9382 14.8824
    endloop
  endfacet
  facet normal -3.47367e-17 0.987687 0.15644
    outer loop
      vertex 40 7.70979 14.9382
      vertex 38 7.70979 14.9382
      vertex 40 7.7 15
    endloop
  endfacet
  facet normal -3.47367e-17 0.987687 0.15644
    outer loop
      vertex 40 7.7 15
      vertex 38 7.70979 14.9382
      vertex 38 7.7 15
    endloop
  endfacet
  facet normal -1.00806e-16 0.891007 0.453989
    outer loop
      vertex 40 7.7382 14.8824
      vertex 38 7.7382 14.8824
      vertex 40 7.70979 14.9382
    endloop
  endfacet
  facet normal -1.00806e-16 0.891007 0.453989
    outer loop
      vertex 40 7.70979 14.9382
      vertex 38 7.7382 14.8824
      vertex 38 7.70979 14.9382
    endloop
  endfacet
  facet normal 3.47367e-17 0.987687 -0.15644
    outer loop
      vertex 40 7.70979 15.0618
      vertex 40 7.7 15
      vertex 38 7.70979 15.0618
    endloop
  endfacet
  facet normal 3.47367e-17 0.987687 -0.15644
    outer loop
      vertex 38 7.70979 15.0618
      vertex 40 7.7 15
      vertex 38 7.7 15
    endloop
  endfacet
  facet normal 1.00806e-16 0.891007 -0.453989
    outer loop
      vertex 40 7.7382 15.1176
      vertex 40 7.70979 15.0618
      vertex 38 7.7382 15.1176
    endloop
  endfacet
  facet normal 1.00806e-16 0.891007 -0.453989
    outer loop
      vertex 38 7.7382 15.1176
      vertex 40 7.70979 15.0618
      vertex 38 7.70979 15.0618
    endloop
  endfacet
  facet normal 1.57009e-16 0.707107 -0.707107
    outer loop
      vertex 40 7.78244 15.1618
      vertex 40 7.7382 15.1176
      vertex 38 7.78244 15.1618
    endloop
  endfacet
  facet normal 1.57009e-16 0.707107 -0.707107
    outer loop
      vertex 38 7.78244 15.1618
      vertex 40 7.7382 15.1176
      vertex 38 7.7382 15.1176
    endloop
  endfacet
  facet normal 1.97843e-16 0.453989 -0.891007
    outer loop
      vertex 40 7.8382 15.1902
      vertex 40 7.78244 15.1618
      vertex 38 7.8382 15.1902
    endloop
  endfacet
  facet normal 1.97843e-16 0.453989 -0.891007
    outer loop
      vertex 38 7.8382 15.1902
      vertex 40 7.78244 15.1618
      vertex 38 7.78244 15.1618
    endloop
  endfacet
  facet normal 2.19311e-16 0.15644 -0.987687
    outer loop
      vertex 40 7.9 15.2
      vertex 40 7.8382 15.1902
      vertex 38 7.9 15.2
    endloop
  endfacet
  facet normal 2.19311e-16 0.15644 -0.987687
    outer loop
      vertex 38 7.9 15.2
      vertex 40 7.8382 15.1902
      vertex 38 7.8382 15.1902
    endloop
  endfacet
  facet normal 2.19311e-16 -0.15644 -0.987687
    outer loop
      vertex 40 7.9618 15.1902
      vertex 40 7.9 15.2
      vertex 38 7.9618 15.1902
    endloop
  endfacet
  facet normal 2.19311e-16 -0.15644 -0.987687
    outer loop
      vertex 38 7.9618 15.1902
      vertex 40 7.9 15.2
      vertex 38 7.9 15.2
    endloop
  endfacet
  facet normal 1.97843e-16 -0.453989 -0.891007
    outer loop
      vertex 40 8.01756 15.1618
      vertex 40 7.9618 15.1902
      vertex 38 8.01756 15.1618
    endloop
  endfacet
  facet normal 1.97843e-16 -0.453989 -0.891007
    outer loop
      vertex 38 8.01756 15.1618
      vertex 40 7.9618 15.1902
      vertex 38 7.9618 15.1902
    endloop
  endfacet
  facet normal 1.57009e-16 -0.707107 -0.707107
    outer loop
      vertex 38 8.0618 15.1176
      vertex 40 8.0618 15.1176
      vertex 40 8.01756 15.1618
    endloop
  endfacet
  facet normal 1.57009e-16 -0.707107 -0.707107
    outer loop
      vertex 38 8.01756 15.1618
      vertex 38 8.0618 15.1176
      vertex 40 8.01756 15.1618
    endloop
  endfacet
  facet normal 1.00806e-16 -0.891007 -0.453989
    outer loop
      vertex 38 8.09021 15.0618
      vertex 40 8.09021 15.0618
      vertex 40 8.0618 15.1176
    endloop
  endfacet
  facet normal 1.00806e-16 -0.891007 -0.453989
    outer loop
      vertex 38 8.0618 15.1176
      vertex 38 8.09021 15.0618
      vertex 40 8.0618 15.1176
    endloop
  endfacet
  facet normal 3.47367e-17 -0.987687 -0.15644
    outer loop
      vertex 38 8.1 15
      vertex 40 8.1 15
      vertex 40 8.09021 15.0618
    endloop
  endfacet
  facet normal 3.47367e-17 -0.987687 -0.15644
    outer loop
      vertex 38 8.09021 15.0618
      vertex 38 8.1 15
      vertex 40 8.09021 15.0618
    endloop
  endfacet
  facet normal -3.47367e-17 -0.987687 0.15644
    outer loop
      vertex 40 8.09021 14.9382
      vertex 40 8.1 15
      vertex 38 8.1 15
    endloop
  endfacet
  facet normal -3.47367e-17 -0.987687 0.15644
    outer loop
      vertex 38 8.09021 14.9382
      vertex 40 8.09021 14.9382
      vertex 38 8.1 15
    endloop
  endfacet
  facet normal -1.00806e-16 -0.891007 0.453989
    outer loop
      vertex 40 8.0618 14.8824
      vertex 40 8.09021 14.9382
      vertex 38 8.09021 14.9382
    endloop
  endfacet
  facet normal -1.00806e-16 -0.891007 0.453989
    outer loop
      vertex 38 8.0618 14.8824
      vertex 40 8.0618 14.8824
      vertex 38 8.09021 14.9382
    endloop
  endfacet
  facet normal -1.57009e-16 -0.707107 0.707107
    outer loop
      vertex 40 8.01756 14.8382
      vertex 40 8.0618 14.8824
      vertex 38 8.0618 14.8824
    endloop
  endfacet
  facet normal -1.57009e-16 -0.707107 0.707107
    outer loop
      vertex 38 8.01756 14.8382
      vertex 40 8.01756 14.8382
      vertex 38 8.0618 14.8824
    endloop
  endfacet
  facet normal -1.97843e-16 -0.453989 0.891007
    outer loop
      vertex 40 7.9618 14.8098
      vertex 40 8.01756 14.8382
      vertex 38 8.01756 14.8382
    endloop
  endfacet
  facet normal -1.97843e-16 -0.453989 0.891007
    outer loop
      vertex 38 7.9618 14.8098
      vertex 40 7.9618 14.8098
      vertex 38 8.01756 14.8382
    endloop
  endfacet
  facet normal -2.19311e-16 -0.15644 0.987687
    outer loop
      vertex 40 7.9 14.8
      vertex 40 7.9618 14.8098
      vertex 38 7.9618 14.8098
    endloop
  endfacet
  facet normal -2.19311e-16 -0.15644 0.987687
    outer loop
      vertex 38 7.9 14.8
      vertex 40 7.9 14.8
      vertex 38 7.9618 14.8098
    endloop
  endfacet
  facet normal -2.19311e-16 0.15644 0.987687
    outer loop
      vertex 40 7.8382 14.8098
      vertex 40 7.9 14.8
      vertex 38 7.9 14.8
    endloop
  endfacet
  facet normal -2.19311e-16 0.15644 0.987687
    outer loop
      vertex 38 7.8382 14.8098
      vertex 40 7.8382 14.8098
      vertex 38 7.9 14.8
    endloop
  endfacet
  facet normal -1.97843e-16 0.453989 0.891007
    outer loop
      vertex 40 7.78244 14.8382
      vertex 40 7.8382 14.8098
      vertex 38 7.8382 14.8098
    endloop
  endfacet
  facet normal -1.97843e-16 0.453989 0.891007
    outer loop
      vertex 38 7.78244 14.8382
      vertex 40 7.78244 14.8382
      vertex 38 7.8382 14.8098
    endloop
  endfacet
  facet normal -1.57009e-16 0.707107 0.707107
    outer loop
      vertex 40 7.78244 14.8382
      vertex 38 7.78244 14.8382
      vertex 40 7.7382 14.8824
    endloop
  endfacet
  facet normal -1.57009e-16 0.707107 0.707107
    outer loop
      vertex 40 7.7382 14.8824
      vertex 38 7.78244 14.8382
      vertex 38 7.7382 14.8824
    endloop
  endfacet
endsolid OpenSCAD_Model
